<svg width="287" height="44" viewBox="0 0 287 44" fill="none" xmlns="http://www.w3.org/2000/svg">
<path d="M48.344 20.44C50.514 18.022 51.754 15.046 51.754 12.008C51.754 5.622 48.716 0.599997 38.858 0.599997H0.666V44H40.346C50.204 44 54.482 38.668 54.482 31.352C54.482 26.33 52.064 22.734 48.344 20.44ZM11.826 8.66H34.828C37.866 8.66 40.594 8.66 40.594 13.124C40.594 17.65 37.866 17.65 34.89 17.65H34.828H11.826V8.66ZM37.618 35.382H11.826V26.206H37.618C40.594 26.206 43.322 26.206 43.322 30.794C43.322 35.382 40.594 35.382 37.618 35.382ZM101.366 44H113.704L91.2596 0.599997H76.1936L53.8116 44H66.0876L70.7376 34.762H96.7156L101.366 44ZM74.8916 26.454L83.7576 8.846L92.5616 26.454H74.8916ZM127.531 0.599997H116.371V44H127.531V0.599997ZM134.08 18.518V27.322H183.68V18.518H134.08ZM236.118 9.466V0.599997H190.238V44H236.118V35.134H201.398V26.33H236.118V18.27H201.398V9.466H236.118ZM286.069 9.466V0.599997H240.189V44H286.069V35.134H251.349V26.33H286.069V18.27H251.349V9.466H286.069Z" fill="white"/>
</svg>
