<svg width="2334" height="1378" viewBox="0 0 2334 1378" fill="none" xmlns="http://www.w3.org/2000/svg">
<g clip-path="url(#clip0_476_18151)">
<path d="M35.75 322.28H6.82V399.5H35.75C60.39 399.5 76.23 383.77 76.23 360.89C76.23 337.9 60.39 322.28 35.75 322.28ZM25.63 383.22V338.34H34.54C48.73 338.34 57.09 346.7 57.09 360.89C57.09 375.08 48.73 383.22 34.54 383.22H25.63ZM105.552 371.01C105.552 360.45 110.722 357.37 119.632 357.37H124.802V337.46C116.552 337.46 109.842 341.86 105.552 348.35V338.12H86.7419V399.5H105.552V371.01ZM193.853 368.81C193.853 349.34 179.993 337.24 161.953 337.24C144.023 337.24 130.053 349.34 130.053 368.81C130.053 388.28 143.693 400.38 161.733 400.38C179.773 400.38 193.853 388.28 193.853 368.81ZM149.193 368.81C149.193 358.36 155.133 353.52 161.953 353.52C168.553 353.52 174.713 358.36 174.713 368.81C174.713 379.15 168.443 384.1 161.733 384.1C154.913 384.1 149.193 379.15 149.193 368.81ZM222.642 346.81V338.12H203.832V428.76H222.642V390.92C226.052 396.09 232.542 400.38 241.562 400.38C256.632 400.38 268.622 388.06 268.622 368.7C268.622 349.34 256.632 337.24 241.562 337.24C232.542 337.24 226.052 341.42 222.642 346.81ZM249.482 368.7C249.482 378.49 243.102 383.99 235.952 383.99C228.912 383.99 222.532 378.6 222.532 368.81C222.532 359.02 228.912 353.63 235.952 353.63C243.102 353.63 249.482 358.91 249.482 368.7ZM338.55 368.81C338.55 349.34 324.69 337.24 306.65 337.24C288.72 337.24 274.75 349.34 274.75 368.81C274.75 388.28 288.39 400.38 306.43 400.38C324.47 400.38 338.55 388.28 338.55 368.81ZM293.89 368.81C293.89 358.36 299.83 353.52 306.65 353.52C313.25 353.52 319.41 358.36 319.41 368.81C319.41 379.15 313.14 384.1 306.43 384.1C299.61 384.1 293.89 379.15 293.89 368.81ZM348.529 399.5H367.339V318.1H348.529V399.5ZM380.97 399.5H399.78V338.12H380.97V399.5ZM390.43 331.74C397.03 331.74 401.54 327.23 401.54 321.62C401.54 315.9 397.03 311.39 390.43 311.39C383.72 311.39 379.21 315.9 379.21 321.62C379.21 327.23 383.72 331.74 390.43 331.74ZM463.242 381.68C462.912 358.8 429.692 365.73 429.692 355.94C429.692 352.97 432.112 351.21 436.512 351.21C441.792 351.21 444.982 353.96 445.532 358.14H462.912C461.702 346.04 452.902 337.24 437.062 337.24C421.002 337.24 412.092 345.82 412.092 356.27C412.092 378.82 445.532 371.67 445.532 381.57C445.532 384.32 443.002 386.52 438.162 386.52C432.992 386.52 429.142 383.66 428.702 379.37H410.112C410.992 391.25 421.992 400.38 438.382 400.38C453.782 400.38 463.242 392.35 463.242 381.68ZM494.66 390.26C494.66 384.43 490.15 379.92 483.55 379.92C476.84 379.92 472.33 384.43 472.33 390.26C472.33 395.87 476.84 400.38 483.55 400.38C490.15 400.38 494.66 395.87 494.66 390.26ZM505.795 399.5H524.605V338.12H505.795V399.5ZM515.255 331.74C521.855 331.74 526.365 327.23 526.365 321.62C526.365 315.9 521.855 311.39 515.255 311.39C508.545 311.39 504.035 315.9 504.035 321.62C504.035 327.23 508.545 331.74 515.255 331.74ZM598.296 368.81C598.296 349.34 584.436 337.24 566.396 337.24C548.466 337.24 534.496 349.34 534.496 368.81C534.496 388.28 548.136 400.38 566.176 400.38C584.216 400.38 598.296 388.28 598.296 368.81ZM553.636 368.81C553.636 358.36 559.576 353.52 566.396 353.52C572.996 353.52 579.156 358.36 579.156 368.81C579.156 379.15 572.886 384.1 566.176 384.1C559.356 384.1 553.636 379.15 553.636 368.81Z" fill="white"/>
<path d="M27 473.98C27 478.66 24.3 482.02 18.12 482.02H10.08V466.18H18.12C24.36 466.18 27 469.24 27 473.98ZM4.62 461.68V503.5H10.08V486.4H16.68L26.64 503.5H33.18L22.68 485.98C29.7 484.42 32.64 479.32 32.64 473.98C32.64 467.14 27.96 461.68 18.12 461.68H4.62ZM55.1039 474.7C60.7439 474.7 65.5439 478.24 65.4839 484.66H44.7239C45.3239 478.24 49.7639 474.7 55.1039 474.7ZM70.4639 493.36H64.5839C63.3839 496.9 60.2639 499.42 55.3439 499.42C49.7639 499.42 45.0839 495.76 44.6639 489.1H70.9439C71.0639 487.96 71.1239 487 71.1239 485.8C71.1239 476.8 64.8839 470.08 55.3439 470.08C45.7439 470.08 39.0839 476.62 39.0839 487C39.0839 497.44 45.9839 504.04 55.3439 504.04C63.5039 504.04 68.7839 499.36 70.4639 493.36ZM76.2909 486.94C76.2909 497.14 83.0709 504.04 91.8909 504.04C97.8909 504.04 102.151 500.98 104.131 497.32V503.5H109.651V459.1H104.131V476.5C101.851 472.72 97.1109 470.08 91.9509 470.08C83.0709 470.08 76.2909 476.68 76.2909 486.94ZM104.131 487C104.131 494.74 98.9709 499.24 92.9709 499.24C86.9709 499.24 81.8709 494.68 81.8709 486.94C81.8709 479.2 86.9709 474.82 92.9709 474.82C98.9709 474.82 104.131 479.38 104.131 487ZM132.858 474.7C138.498 474.7 143.298 478.24 143.238 484.66H122.478C123.078 478.24 127.518 474.7 132.858 474.7ZM148.218 493.36H142.338C141.138 496.9 138.018 499.42 133.098 499.42C127.518 499.42 122.838 495.76 122.418 489.1H148.698C148.818 487.96 148.878 487 148.878 485.8C148.878 476.8 142.638 470.08 133.098 470.08C123.498 470.08 116.838 476.62 116.838 487C116.838 497.44 123.738 504.04 133.098 504.04C141.258 504.04 146.538 499.36 148.218 493.36ZM154.045 486.94C154.045 497.14 160.825 504.04 169.585 504.04C175.645 504.04 179.905 500.92 181.885 497.38V503.5H187.405V470.62H181.885V476.62C179.965 473.2 175.765 470.08 169.645 470.08C160.825 470.08 154.045 476.68 154.045 486.94ZM181.885 487C181.885 494.74 176.725 499.24 170.725 499.24C164.725 499.24 159.625 494.68 159.625 486.94C159.625 479.2 164.725 474.82 170.725 474.82C176.725 474.82 181.885 479.38 181.885 487ZM244.092 503.5H249.492V484.12C249.492 474.7 243.672 470.02 236.172 470.02C231.132 470.02 226.452 472.6 224.532 477.34C222.372 472.42 217.872 470.02 212.472 470.02C208.152 470.02 204.252 471.88 202.092 475.36V470.62H196.632V503.5H202.092V485.38C202.092 478.3 205.872 474.76 211.392 474.76C216.792 474.76 220.392 478.18 220.392 484.9V503.5H225.792V485.38C225.792 478.3 229.572 474.76 235.092 474.76C240.492 474.76 244.092 478.18 244.092 484.9V503.5ZM256.408 486.94C256.408 497.14 263.188 504.04 271.948 504.04C278.008 504.04 282.268 500.92 284.248 497.38V503.5H289.768V470.62H284.248V476.62C282.328 473.2 278.128 470.08 272.008 470.08C263.188 470.08 256.408 476.68 256.408 486.94ZM284.248 487C284.248 494.74 279.088 499.24 273.088 499.24C267.088 499.24 261.988 494.68 261.988 486.94C261.988 479.2 267.088 474.82 273.088 474.82C279.088 474.82 284.248 479.38 284.248 487ZM304.455 476.74V459.1H298.995V503.5H304.455V497.44C306.495 501.04 310.755 504.04 316.755 504.04C325.575 504.04 332.355 497.14 332.355 486.94C332.355 476.68 325.635 470.08 316.755 470.08C310.935 470.08 306.555 473.08 304.455 476.74ZM326.775 486.94C326.775 494.68 321.675 499.24 315.615 499.24C309.675 499.24 304.455 494.74 304.455 487C304.455 479.38 309.675 474.82 315.615 474.82C321.675 474.82 326.775 479.2 326.775 486.94ZM339.542 503.5H345.002V459.1H339.542V503.5ZM368.288 474.7C373.928 474.7 378.728 478.24 378.668 484.66H357.908C358.507 478.24 362.948 474.7 368.288 474.7ZM383.648 493.36H377.768C376.568 496.9 373.448 499.42 368.528 499.42C362.948 499.42 358.268 495.76 357.848 489.1H384.128C384.248 487.96 384.308 487 384.308 485.8C384.308 476.8 378.068 470.08 368.528 470.08C358.928 470.08 352.268 476.62 352.268 487C352.268 497.44 359.168 504.04 368.528 504.04C376.688 504.04 381.968 499.36 383.648 493.36ZM427.251 514.66V514.12C418.911 505.54 414.651 493.72 414.651 481.54C414.651 469.3 418.911 456.7 428.151 448V447.46H422.451C413.931 455.32 409.371 467.98 409.371 481.54C409.371 495.04 413.931 507.16 421.551 514.66H427.251ZM440.217 481.54V466.18H448.257C454.497 466.18 457.137 469.06 457.137 473.92C457.137 478.6 454.497 481.54 448.257 481.54H440.217ZM462.717 473.92C462.717 467.08 458.097 461.68 448.257 461.68H434.757V503.5H440.217V486.04H448.257C458.637 486.04 462.717 480.28 462.717 473.92ZM469.503 503.5H474.963V485.32C474.963 478.24 478.803 474.76 484.383 474.76C489.903 474.76 493.563 478.18 493.563 484.9V503.5H498.963V484.12C498.963 474.7 493.143 470.02 485.823 470.02C481.203 470.02 477.123 471.88 474.963 475.36V459.1H469.503V503.5ZM520.362 497.26L510.042 470.62H503.982L517.242 503.14L510.762 518.98H516.402L536.202 470.62H530.562L520.362 497.26ZM539.65 486.94C539.65 497.14 546.43 504.04 555.25 504.04C561.25 504.04 565.51 500.86 567.49 497.32V504.22C567.49 511.24 563.11 514.96 557.29 514.96C551.89 514.96 547.99 512.26 546.79 508.3H541.39C542.47 515.32 548.65 519.7 557.29 519.7C566.95 519.7 573.01 513.28 573.01 504.22V470.62H567.49V476.62C565.57 473.08 561.25 470.08 555.25 470.08C546.43 470.08 539.65 476.68 539.65 486.94ZM567.49 487C567.49 494.74 562.33 499.24 556.33 499.24C550.33 499.24 545.23 494.68 545.23 486.94C545.23 479.2 550.33 474.82 556.33 474.82C562.33 474.82 567.49 479.38 567.49 487ZM582.237 503.5H587.697V470.62H582.237V503.5ZM585.057 465.28C587.037 465.28 588.657 463.66 588.657 461.56C588.657 459.46 587.037 457.84 585.057 457.84C582.957 457.84 581.337 459.46 581.337 461.56C581.337 463.66 582.957 465.28 585.057 465.28ZM598.203 494.5C598.203 501.1 601.503 503.5 607.323 503.5H612.243V498.88H608.223C604.863 498.88 603.663 497.74 603.663 494.5V475.12H612.243V470.62H603.663V462.34H598.203V470.62H593.943V475.12H598.203V494.5ZM616.818 486.94C616.818 497.14 623.598 504.04 632.358 504.04C638.418 504.04 642.678 500.92 644.658 497.38V503.5H650.178V470.62H644.658V476.62C642.738 473.2 638.538 470.08 632.418 470.08C623.598 470.08 616.818 476.68 616.818 486.94ZM644.658 487C644.658 494.74 639.498 499.24 633.498 499.24C627.498 499.24 622.398 494.68 622.398 486.94C622.398 479.2 627.498 474.82 633.498 474.82C639.498 474.82 644.658 479.38 644.658 487ZM659.405 503.5H664.865V459.1H659.405V503.5ZM672.431 514.66V514.12C680.771 505.54 685.031 493.72 685.031 481.54C685.031 469.3 680.771 456.7 671.531 448V447.46H677.231C685.751 455.32 690.311 467.98 690.311 481.54C690.311 495.04 685.751 507.16 678.131 514.66H672.431ZM717.413 503.5H722.873V472.48L736.733 503.5H740.573L754.373 472.54V503.5H759.833V461.98H754.013L738.653 496.3L723.293 461.98H717.413V503.5ZM767.053 486.94C767.053 497.14 773.833 504.04 782.593 504.04C788.653 504.04 792.913 500.92 794.893 497.38V503.5H800.413V470.62H794.893V476.62C792.973 473.2 788.773 470.08 782.653 470.08C773.833 470.08 767.053 476.68 767.053 486.94ZM794.893 487C794.893 494.74 789.733 499.24 783.733 499.24C777.733 499.24 772.633 494.68 772.633 486.94C772.633 479.2 777.733 474.82 783.733 474.82C789.733 474.82 794.893 479.38 794.893 487ZM815.1 485.62C815.1 478 819.06 475.66 824.28 475.66H825.72V470.02C820.5 470.02 816.96 472.3 815.1 475.96V470.62H809.64V503.5H815.1V485.62ZM832.022 503.5H837.482V488.98L850.382 503.5H857.822L842.282 487L857.762 470.62H850.142L837.482 485.2V459.1H832.022V503.5ZM876.881 474.7C882.521 474.7 887.321 478.24 887.261 484.66H866.501C867.101 478.24 871.541 474.7 876.881 474.7ZM892.241 493.36H886.361C885.161 496.9 882.041 499.42 877.121 499.42C871.541 499.42 866.861 495.76 866.441 489.1H892.721C892.841 487.96 892.901 487 892.901 485.8C892.901 476.8 886.661 470.08 877.121 470.08C867.521 470.08 860.861 476.62 860.861 487C860.861 497.44 867.761 504.04 877.121 504.04C885.281 504.04 890.561 499.36 892.241 493.36ZM901.308 494.5C901.308 501.1 904.608 503.5 910.428 503.5H915.348V498.88H911.328C907.968 498.88 906.768 497.74 906.768 494.5V475.12H915.348V470.62H906.768V462.34H901.308V470.62H897.048V475.12H901.308V494.5ZM927.424 476.68V470.62H921.964V519.1H927.424V497.44C929.464 500.8 933.724 504.04 939.724 504.04C948.544 504.04 955.324 497.14 955.324 486.94C955.324 476.68 948.544 470.08 939.724 470.08C933.724 470.08 929.404 473.2 927.424 476.68ZM949.744 486.94C949.744 494.68 944.644 499.24 938.584 499.24C932.644 499.24 927.424 494.74 927.424 487C927.424 479.38 932.644 474.82 938.584 474.82C944.644 474.82 949.744 479.2 949.744 486.94ZM962.511 503.5H967.971V459.1H962.511V503.5ZM975.236 486.94C975.236 497.14 982.016 504.04 990.776 504.04C996.836 504.04 1001.1 500.92 1003.08 497.38V503.5H1008.6V470.62H1003.08V476.62C1001.16 473.2 996.956 470.08 990.836 470.08C982.016 470.08 975.236 476.68 975.236 486.94ZM1003.08 487C1003.08 494.74 997.916 499.24 991.916 499.24C985.916 499.24 980.816 494.68 980.816 486.94C980.816 479.2 985.916 474.82 991.916 474.82C997.916 474.82 1003.08 479.38 1003.08 487ZM1015.78 487C1015.78 497.44 1022.44 504.04 1031.8 504.04C1039.96 504.04 1045.3 499.48 1046.98 492.94H1041.1C1039.9 497.08 1036.66 499.42 1031.8 499.42C1025.8 499.42 1021.36 495.16 1021.36 487C1021.36 478.96 1025.8 474.7 1031.8 474.7C1036.66 474.7 1039.96 477.22 1041.1 481.18H1046.98C1045.3 474.28 1039.96 470.08 1031.8 470.08C1022.44 470.08 1015.78 476.68 1015.78 487ZM1068.25 474.7C1073.89 474.7 1078.69 478.24 1078.63 484.66H1057.87C1058.47 478.24 1062.91 474.7 1068.25 474.7ZM1083.61 493.36H1077.73C1076.53 496.9 1073.41 499.42 1068.49 499.42C1062.91 499.42 1058.23 495.76 1057.81 489.1H1084.09C1084.21 487.96 1084.27 487 1084.27 485.8C1084.27 476.8 1078.03 470.08 1068.49 470.08C1058.89 470.08 1052.23 476.62 1052.23 487C1052.23 497.44 1059.13 504.04 1068.49 504.04C1076.65 504.04 1081.93 499.36 1083.61 493.36Z" fill="white"/>
<path d="M13.98 592.22V581.66H19.56C23.64 581.66 25.38 583.7 25.38 586.94C25.38 590.18 23.64 592.22 19.56 592.22H13.98ZM35.82 586.94C35.82 579.2 30.66 573.38 20.34 573.38H3.72V615.5H13.98V600.38H20.34C31.08 600.38 35.82 593.9 35.82 586.94ZM63.4214 587.06C63.4214 590.36 61.6214 592.34 57.7814 592.34H51.4214V581.9H57.7814C61.6214 581.9 63.4214 583.94 63.4214 587.06ZM41.1614 573.38V615.5H51.4214V599.6H53.8814L62.6414 615.5H74.2214L64.5014 598.82C70.9814 596.9 73.8614 591.92 73.8614 586.64C73.8614 579.32 68.7014 573.38 58.3814 573.38H41.1614ZM121.762 594.32C121.762 581.66 112.222 572.78 100.222 572.78C88.282 572.78 78.562 581.66 78.562 594.32C78.562 606.98 88.282 615.92 100.222 615.92C112.162 615.92 121.762 606.98 121.762 594.32ZM89.062 594.32C89.062 586.82 93.382 582.08 100.222 582.08C106.942 582.08 111.322 586.82 111.322 594.32C111.322 601.7 106.942 606.56 100.222 606.56C93.382 606.56 89.062 601.7 89.062 594.32ZM150.69 602.66C150.69 605.66 148.71 607.22 145.29 607.22H137.73V597.92H145.17C148.59 597.92 150.69 599.66 150.69 602.66ZM149.67 586.04C149.67 588.92 147.81 590.42 144.45 590.42H137.73V581.6H144.45C147.81 581.6 149.67 583.16 149.67 586.04ZM161.07 604.04C161.07 599.24 157.89 594.92 152.97 593.9C157.05 592.7 160.11 589.4 160.11 584.3C160.11 577.64 155.01 573.38 146.43 573.38H127.47V615.5H147.09C155.97 615.5 161.07 611 161.07 604.04ZM167.021 573.38V615.5H190.721V607.58H177.281V573.38H167.021ZM221.415 573.38H195.615V615.5H221.415V607.28H205.875V598.04H219.615V590.12H205.875V581.6H221.415V573.38ZM228.075 615.5H238.335V590.18L247.815 615.5H256.095L265.515 590.24V615.5H275.775V573.38H263.715L252.015 602.54L240.195 573.38H228.075V615.5ZM294.014 610.46C294.014 607.28 291.554 604.82 287.954 604.82C284.294 604.82 281.834 607.28 281.834 610.46C281.834 613.52 284.294 615.98 287.954 615.98C291.554 615.98 294.014 613.52 294.014 610.46ZM294.014 586.04C294.014 582.86 291.554 580.4 287.954 580.4C284.294 580.4 281.834 582.86 281.834 586.04C281.834 589.1 284.294 591.56 287.954 591.56C291.554 591.56 294.014 589.1 294.014 586.04Z" fill="#F5F5F5"/>
<path d="M11.76 678.62H3.08V706.5H11.76C20.92 706.5 26.56 701.26 26.56 692.62C26.56 683.98 20.92 678.62 11.76 678.62ZM6.72 703.5V681.58H11.76C19.04 681.58 22.84 685.82 22.84 692.62C22.84 699.42 19.04 703.5 11.76 703.5H6.72ZM35.0013 694.58C35.0013 689.5 37.6413 687.94 41.1213 687.94H42.0813V684.18C38.6013 684.18 36.2413 685.7 35.0013 688.14V684.58H31.3613V706.5H35.0013V694.58ZM67.0831 695.5C67.0831 688.58 62.2431 684.22 56.0031 684.22C49.8031 684.22 44.9231 688.58 44.9231 695.5C44.9231 702.46 49.6431 706.86 55.8431 706.86C62.0831 706.86 67.0831 702.46 67.0831 695.5ZM48.6431 695.5C48.6431 689.98 52.1231 687.38 55.9631 687.38C59.7231 687.38 63.3631 689.98 63.3631 695.5C63.3631 701.06 59.6431 703.66 55.8431 703.66C52.0431 703.66 48.6431 701.06 48.6431 695.5ZM75.5091 688.62V684.58H71.8691V716.9H75.5091V702.46C76.8691 704.7 79.7091 706.86 83.7091 706.86C89.5891 706.86 94.1091 702.26 94.1091 695.46C94.1091 688.62 89.5891 684.22 83.7091 684.22C79.7091 684.22 76.8291 686.3 75.5091 688.62ZM90.3891 695.46C90.3891 700.62 86.9891 703.66 82.9491 703.66C78.9891 703.66 75.5091 700.66 75.5091 695.5C75.5091 690.42 78.9891 687.38 82.9491 687.38C86.9891 687.38 90.3891 690.3 90.3891 695.46ZM125.324 700.54C125.164 692.7 112.444 695.54 112.444 690.34C112.444 688.58 114.044 687.3 116.724 687.3C119.644 687.3 121.324 688.9 121.484 691.1H125.124C124.884 686.82 121.684 684.22 116.844 684.22C111.964 684.22 108.804 686.98 108.804 690.34C108.804 698.5 121.764 695.66 121.764 700.54C121.764 702.34 120.164 703.78 117.284 703.78C114.204 703.78 112.324 702.18 112.124 700.06H108.364C108.604 704.06 112.204 706.86 117.324 706.86C122.164 706.86 125.324 704.14 125.324 700.54ZM130.463 706.5H134.103V694.38C134.103 689.66 136.663 687.34 140.383 687.34C144.063 687.34 146.503 689.62 146.503 694.1V706.5H150.103V693.58C150.103 687.3 146.223 684.18 141.343 684.18C138.263 684.18 135.543 685.42 134.103 687.74V676.9H130.463V706.5ZM156.049 706.5H159.689V684.58H156.049V706.5ZM157.929 681.02C159.249 681.02 160.329 679.94 160.329 678.54C160.329 677.14 159.249 676.06 157.929 676.06C156.529 676.06 155.449 677.14 155.449 678.54C155.449 679.94 156.529 681.02 157.929 681.02ZM169.533 688.62V684.58H165.893V716.9H169.533V702.46C170.893 704.7 173.733 706.86 177.733 706.86C183.613 706.86 188.133 702.26 188.133 695.46C188.133 688.62 183.613 684.22 177.733 684.22C173.733 684.22 170.853 686.3 169.533 688.62ZM184.413 695.46C184.413 700.62 181.013 703.66 176.973 703.66C173.013 703.66 169.533 700.66 169.533 695.5C169.533 690.42 173.013 687.38 176.973 687.38C181.013 687.38 184.413 690.3 184.413 695.46ZM196.564 688.62V684.58H192.924V716.9H196.564V702.46C197.924 704.7 200.764 706.86 204.764 706.86C210.644 706.86 215.164 702.26 215.164 695.46C215.164 688.62 210.644 684.22 204.764 684.22C200.764 684.22 197.884 686.3 196.564 688.62ZM211.444 695.46C211.444 700.62 208.044 703.66 204.004 703.66C200.044 703.66 196.564 700.66 196.564 695.5C196.564 690.42 200.044 687.38 204.004 687.38C208.044 687.38 211.444 690.3 211.444 695.46ZM219.955 706.5H223.595V684.58H219.955V706.5ZM221.835 681.02C223.155 681.02 224.235 679.94 224.235 678.54C224.235 677.14 223.155 676.06 221.835 676.06C220.435 676.06 219.355 677.14 219.355 678.54C219.355 679.94 220.435 681.02 221.835 681.02ZM245.839 706.5H249.439V693.58C249.439 687.3 245.559 684.18 240.479 684.18C237.519 684.18 234.879 685.42 233.439 687.7V684.58H229.799V706.5H233.439V694.38C233.439 689.66 235.999 687.34 239.719 687.34C243.399 687.34 245.839 689.62 245.839 694.1V706.5ZM254.025 695.46C254.025 702.26 258.545 706.86 264.425 706.86C268.425 706.86 271.265 704.74 272.585 702.38V706.98C272.585 711.66 269.665 714.14 265.785 714.14C262.185 714.14 259.585 712.34 258.785 709.7H255.185C255.905 714.38 260.025 717.3 265.785 717.3C272.225 717.3 276.265 713.02 276.265 706.98V684.58H272.585V688.58C271.305 686.22 268.425 684.22 264.425 684.22C258.545 684.22 254.025 688.62 254.025 695.46ZM272.585 695.5C272.585 700.66 269.145 703.66 265.145 703.66C261.145 703.66 257.745 700.62 257.745 695.46C257.745 690.3 261.145 687.38 265.145 687.38C269.145 687.38 272.585 690.42 272.585 695.5ZM296.72 694.58C296.72 689.5 299.36 687.94 302.84 687.94H303.8V684.18C300.32 684.18 297.96 685.7 296.72 688.14V684.58H293.08V706.5H296.72V694.58ZM317.322 687.3C321.082 687.3 324.282 689.66 324.242 693.94H310.402C310.802 689.66 313.762 687.3 317.322 687.3ZM327.562 699.74H323.642C322.842 702.1 320.762 703.78 317.482 703.78C313.762 703.78 310.642 701.34 310.362 696.9H327.882C327.962 696.14 328.002 695.5 328.002 694.7C328.002 688.7 323.842 684.22 317.482 684.22C311.082 684.22 306.642 688.58 306.642 695.5C306.642 702.46 311.242 706.86 317.482 706.86C322.922 706.86 326.442 703.74 327.562 699.74ZM331.447 695.46C331.447 702.26 335.967 706.86 341.847 706.86C345.847 706.86 348.687 704.82 350.007 702.38V706.5H353.687V676.9H350.007V688.5C348.487 685.98 345.327 684.22 341.887 684.22C335.967 684.22 331.447 688.62 331.447 695.46ZM350.007 695.5C350.007 700.66 346.567 703.66 342.567 703.66C338.567 703.66 335.167 700.62 335.167 695.46C335.167 690.3 338.567 687.38 342.567 687.38C346.567 687.38 350.007 690.42 350.007 695.5ZM369.158 687.3C372.918 687.3 376.118 689.66 376.078 693.94H362.238C362.638 689.66 365.598 687.3 369.158 687.3ZM379.398 699.74H375.478C374.678 702.1 372.598 703.78 369.318 703.78C365.598 703.78 362.478 701.34 362.198 696.9H379.718C379.798 696.14 379.838 695.5 379.838 694.7C379.838 688.7 375.678 684.22 369.318 684.22C362.918 684.22 358.478 688.58 358.478 695.5C358.478 702.46 363.078 706.86 369.318 706.86C374.758 706.86 378.278 703.74 379.398 699.74ZM383.283 695.46C383.283 702.26 387.803 706.86 393.643 706.86C397.683 706.86 400.523 704.78 401.843 702.42V706.5H405.523V684.58H401.843V688.58C400.563 686.3 397.763 684.22 393.683 684.22C387.803 684.22 383.283 688.62 383.283 695.46ZM401.843 695.5C401.843 700.66 398.403 703.66 394.403 703.66C390.403 703.66 387.003 700.62 387.003 695.46C387.003 690.3 390.403 687.38 394.403 687.38C398.403 687.38 401.843 690.42 401.843 695.5ZM443.314 706.5H446.914V693.58C446.914 687.3 443.034 684.18 438.034 684.18C434.674 684.18 431.554 685.9 430.274 689.06C428.834 685.78 425.834 684.18 422.234 684.18C419.354 684.18 416.754 685.42 415.314 687.74V684.58H411.674V706.5H415.314V694.42C415.314 689.7 417.834 687.34 421.514 687.34C425.114 687.34 427.514 689.62 427.514 694.1V706.5H431.114V694.42C431.114 689.7 433.634 687.34 437.314 687.34C440.914 687.34 443.314 689.62 443.314 694.1V706.5ZM451.525 695.46C451.525 702.26 456.045 706.86 461.885 706.86C465.925 706.86 468.765 704.78 470.085 702.42V706.5H473.765V684.58H470.085V688.58C468.805 686.3 466.005 684.22 461.925 684.22C456.045 684.22 451.525 688.62 451.525 695.46ZM470.085 695.5C470.085 700.66 466.645 703.66 462.645 703.66C458.645 703.66 455.245 700.62 455.245 695.46C455.245 690.3 458.645 687.38 462.645 687.38C466.645 687.38 470.085 690.42 470.085 695.5ZM483.556 688.66V676.9H479.916V706.5H483.556V702.46C484.916 704.86 487.756 706.86 491.756 706.86C497.636 706.86 502.156 702.26 502.156 695.46C502.156 688.62 497.676 684.22 491.756 684.22C487.876 684.22 484.956 686.22 483.556 688.66ZM498.436 695.46C498.436 700.62 495.036 703.66 490.996 703.66C487.036 703.66 483.556 700.66 483.556 695.5C483.556 690.42 487.036 687.38 490.996 687.38C495.036 687.38 498.436 690.3 498.436 695.46ZM506.947 706.5H510.587V676.9H506.947V706.5ZM526.111 687.3C529.871 687.3 533.071 689.66 533.031 693.94H519.191C519.591 689.66 522.551 687.3 526.111 687.3ZM536.351 699.74H532.431C531.631 702.1 529.551 703.78 526.271 703.78C522.551 703.78 519.431 701.34 519.151 696.9H536.671C536.751 696.14 536.791 695.5 536.791 694.7C536.791 688.7 532.631 684.22 526.271 684.22C519.871 684.22 515.431 688.58 515.431 695.5C515.431 702.46 520.031 706.86 526.271 706.86C531.711 706.86 535.231 703.74 536.351 699.74ZM583.9 706.5H587.5V693.58C587.5 687.3 583.62 684.18 578.62 684.18C575.26 684.18 572.14 685.9 570.86 689.06C569.42 685.78 566.42 684.18 562.82 684.18C559.94 684.18 557.34 685.42 555.9 687.74V684.58H552.26V706.5H555.9V694.42C555.9 689.7 558.42 687.34 562.1 687.34C565.7 687.34 568.1 689.62 568.1 694.1V706.5H571.7V694.42C571.7 689.7 574.22 687.34 577.9 687.34C581.5 687.34 583.9 689.62 583.9 694.1V706.5ZM602.791 687.3C606.551 687.3 609.751 689.66 609.711 693.94H595.871C596.271 689.66 599.231 687.3 602.791 687.3ZM613.031 699.74H609.111C608.311 702.1 606.231 703.78 602.951 703.78C599.231 703.78 596.111 701.34 595.831 696.9H613.351C613.431 696.14 613.471 695.5 613.471 694.7C613.471 688.7 609.311 684.22 602.951 684.22C596.551 684.22 592.111 688.58 592.111 695.5C592.111 702.46 596.711 706.86 602.951 706.86C608.391 706.86 611.911 703.74 613.031 699.74ZM621.915 694.58C621.915 689.5 624.555 687.94 628.035 687.94H628.995V684.18C625.515 684.18 623.155 685.7 621.915 688.14V684.58H618.275V706.5H621.915V694.58ZM631.837 695.5C631.837 702.46 636.277 706.86 642.517 706.86C647.957 706.86 651.517 703.82 652.637 699.46H648.717C647.917 702.22 645.757 703.78 642.517 703.78C638.517 703.78 635.557 700.94 635.557 695.5C635.557 690.14 638.517 687.3 642.517 687.3C645.757 687.3 647.957 688.98 648.717 691.62H652.637C651.517 687.02 647.957 684.22 642.517 684.22C636.277 684.22 631.837 688.62 631.837 695.5ZM657.494 706.5H661.134V694.38C661.134 689.66 663.694 687.34 667.414 687.34C671.094 687.34 673.534 689.62 673.534 694.1V706.5H677.134V693.58C677.134 687.3 673.254 684.18 668.374 684.18C665.294 684.18 662.574 685.42 661.134 687.74V676.9H657.494V706.5ZM681.72 695.46C681.72 702.26 686.24 706.86 692.08 706.86C696.12 706.86 698.96 704.78 700.28 702.42V706.5H703.96V684.58H700.28V688.58C699 686.3 696.2 684.22 692.12 684.22C686.24 684.22 681.72 688.62 681.72 695.46ZM700.28 695.5C700.28 700.66 696.84 703.66 692.84 703.66C688.84 703.66 685.44 700.62 685.44 695.46C685.44 690.3 688.84 687.38 692.84 687.38C696.84 687.38 700.28 690.42 700.28 695.5ZM726.151 706.5H729.751V693.58C729.751 687.3 725.871 684.18 720.791 684.18C717.831 684.18 715.191 685.42 713.751 687.7V684.58H710.111V706.5H713.751V694.38C713.751 689.66 716.311 687.34 720.031 687.34C723.711 687.34 726.151 689.62 726.151 694.1V706.5ZM734.337 695.46C734.337 702.26 738.857 706.86 744.737 706.86C748.737 706.86 751.577 704.82 752.897 702.38V706.5H756.577V676.9H752.897V688.5C751.377 685.98 748.217 684.22 744.777 684.22C738.857 684.22 734.337 688.62 734.337 695.46ZM752.897 695.5C752.897 700.66 749.457 703.66 745.457 703.66C741.457 703.66 738.057 700.62 738.057 695.46C738.057 690.3 741.457 687.38 745.457 687.38C749.457 687.38 752.897 690.42 752.897 695.5ZM762.728 706.5H766.368V684.58H762.728V706.5ZM764.608 681.02C765.928 681.02 767.008 679.94 767.008 678.54C767.008 677.14 765.928 676.06 764.608 676.06C763.208 676.06 762.128 677.14 762.128 678.54C762.128 679.94 763.208 681.02 764.608 681.02ZM788.332 700.54C788.172 692.7 775.452 695.54 775.452 690.34C775.452 688.58 777.052 687.3 779.732 687.3C782.652 687.3 784.332 688.9 784.492 691.1H788.132C787.892 686.82 784.692 684.22 779.852 684.22C774.972 684.22 771.812 686.98 771.812 690.34C771.812 698.5 784.772 695.66 784.772 700.54C784.772 702.34 783.172 703.78 780.292 703.78C777.212 703.78 775.332 702.18 775.132 700.06H771.372C771.612 704.06 775.212 706.86 780.332 706.86C785.172 706.86 788.332 704.14 788.332 700.54ZM802.791 687.3C806.551 687.3 809.751 689.66 809.711 693.94H795.871C796.271 689.66 799.231 687.3 802.791 687.3ZM813.031 699.74H809.111C808.311 702.1 806.231 703.78 802.951 703.78C799.231 703.78 796.111 701.34 795.831 696.9H813.351C813.431 696.14 813.471 695.5 813.471 694.7C813.471 688.7 809.311 684.22 802.951 684.22C796.551 684.22 792.111 688.58 792.111 695.5C792.111 702.46 796.711 706.86 802.951 706.86C808.391 706.86 811.911 703.74 813.031 699.74ZM832.579 694.58C832.579 689.5 835.219 687.94 838.699 687.94H839.659V684.18C836.179 684.18 833.819 685.7 832.579 688.14V684.58H828.939V706.5H832.579V694.58ZM853.181 687.3C856.941 687.3 860.141 689.66 860.101 693.94H846.261C846.661 689.66 849.621 687.3 853.181 687.3ZM863.421 699.74H859.501C858.701 702.1 856.621 703.78 853.341 703.78C849.621 703.78 846.501 701.34 846.221 696.9H863.741C863.821 696.14 863.861 695.5 863.861 694.7C863.861 688.7 859.701 684.22 853.341 684.22C846.941 684.22 842.501 688.58 842.501 695.5C842.501 702.46 847.101 706.86 853.341 706.86C858.781 706.86 862.301 703.74 863.421 699.74ZM867.306 695.46C867.306 702.26 871.826 706.86 877.626 706.86C881.706 706.86 884.626 704.7 885.866 702.46V716.9H889.546V684.58H885.866V688.58C884.626 686.3 881.746 684.22 877.746 684.22C871.826 684.22 867.306 688.62 867.306 695.46ZM885.866 695.5C885.866 700.66 882.426 703.66 878.426 703.66C874.426 703.66 871.026 700.62 871.026 695.46C871.026 690.3 874.426 687.38 878.426 687.38C882.426 687.38 885.866 690.42 885.866 695.5ZM915.137 684.58H911.497V696.62C911.497 701.34 908.977 703.66 905.217 703.66C901.537 703.66 899.097 701.38 899.097 696.94V684.58H895.497V697.42C895.497 703.7 899.457 706.82 904.497 706.82C907.417 706.82 910.097 705.54 911.497 703.26V706.5H915.137V684.58ZM921.283 706.5H924.923V684.58H921.283V706.5ZM923.163 681.02C924.483 681.02 925.563 679.94 925.563 678.54C925.563 677.14 924.483 676.06 923.163 676.06C921.763 676.06 920.683 677.14 920.683 678.54C920.683 679.94 921.763 681.02 923.163 681.02ZM934.767 694.58C934.767 689.5 937.407 687.94 940.887 687.94H941.847V684.18C938.367 684.18 936.007 685.7 934.767 688.14V684.58H931.127V706.5H934.767V694.58ZM955.369 687.3C959.129 687.3 962.329 689.66 962.289 693.94H948.449C948.849 689.66 951.809 687.3 955.369 687.3ZM965.609 699.74H961.689C960.889 702.1 958.809 703.78 955.529 703.78C951.809 703.78 948.689 701.34 948.409 696.9H965.929C966.009 696.14 966.049 695.5 966.049 694.7C966.049 688.7 961.889 684.22 955.529 684.22C949.129 684.22 944.689 688.58 944.689 695.5C944.689 702.46 949.289 706.86 955.529 706.86C960.969 706.86 964.489 703.74 965.609 699.74ZM986.613 700.54C986.453 692.7 973.733 695.54 973.733 690.34C973.733 688.58 975.333 687.3 978.013 687.3C980.933 687.3 982.613 688.9 982.773 691.1H986.413C986.173 686.82 982.973 684.22 978.133 684.22C973.253 684.22 970.093 686.98 970.093 690.34C970.093 698.5 983.053 695.66 983.053 700.54C983.053 702.34 981.453 703.78 978.573 703.78C975.493 703.78 973.613 702.18 973.413 700.06H969.653C969.893 704.06 973.493 706.86 978.613 706.86C983.453 706.86 986.613 704.14 986.613 700.54ZM1002.42 706.5H1006.06V684.58H1002.42V706.5ZM1004.3 681.02C1005.62 681.02 1006.7 679.94 1006.7 678.54C1006.7 677.14 1005.62 676.06 1004.3 676.06C1002.9 676.06 1001.82 677.14 1001.82 678.54C1001.82 679.94 1002.9 681.02 1004.3 681.02ZM1028.3 706.5H1031.9V693.58C1031.9 687.3 1028.02 684.18 1022.94 684.18C1019.98 684.18 1017.34 685.42 1015.9 687.7V684.58H1012.26V706.5H1015.9V694.38C1015.9 689.66 1018.46 687.34 1022.18 687.34C1025.86 687.34 1028.3 689.62 1028.3 694.1V706.5ZM1038.53 706.5H1042.17V687.58H1046.77V684.58H1042.17V683.02C1042.17 680.18 1043.25 678.98 1046.53 678.98V675.94C1040.93 675.94 1038.53 678.14 1038.53 683.02V684.58H1035.69V687.58H1038.53V706.5ZM1054.65 694.58C1054.65 689.5 1057.29 687.94 1060.77 687.94H1061.73V684.18C1058.25 684.18 1055.89 685.7 1054.65 688.14V684.58H1051.01V706.5H1054.65V694.58ZM1064.57 695.46C1064.57 702.26 1069.09 706.86 1074.93 706.86C1078.97 706.86 1081.81 704.78 1083.13 702.42V706.5H1086.81V684.58H1083.13V688.58C1081.85 686.3 1079.05 684.22 1074.97 684.22C1069.09 684.22 1064.57 688.62 1064.57 695.46ZM1083.13 695.5C1083.13 700.66 1079.69 703.66 1075.69 703.66C1071.69 703.66 1068.29 700.62 1068.29 695.46C1068.29 690.3 1071.69 687.38 1075.69 687.38C1079.69 687.38 1083.13 690.42 1083.13 695.5ZM1108.72 700.54C1108.56 692.7 1095.84 695.54 1095.84 690.34C1095.84 688.58 1097.44 687.3 1100.12 687.3C1103.04 687.3 1104.72 688.9 1104.88 691.1H1108.52C1108.28 686.82 1105.08 684.22 1100.24 684.22C1095.36 684.22 1092.2 686.98 1092.2 690.34C1092.2 698.5 1105.16 695.66 1105.16 700.54C1105.16 702.34 1103.56 703.78 1100.68 703.78C1097.6 703.78 1095.72 702.18 1095.52 700.06H1091.76C1092 704.06 1095.6 706.86 1100.72 706.86C1105.56 706.86 1108.72 704.14 1108.72 700.54ZM1114.66 700.5C1114.66 704.9 1116.86 706.5 1120.74 706.5H1124.02V703.42H1121.34C1119.1 703.42 1118.3 702.66 1118.3 700.5V687.58H1124.02V684.58H1118.3V679.06H1114.66V684.58H1111.82V687.58H1114.66V700.5ZM1132.07 694.58C1132.07 689.5 1134.71 687.94 1138.19 687.94H1139.15V684.18C1135.67 684.18 1133.31 685.7 1132.07 688.14V684.58H1128.43V706.5H1132.07V694.58ZM1162.79 684.58H1159.15V696.62C1159.15 701.34 1156.63 703.66 1152.87 703.66C1149.19 703.66 1146.75 701.38 1146.75 696.94V684.58H1143.15V697.42C1143.15 703.7 1147.11 706.82 1152.15 706.82C1155.07 706.82 1157.75 705.54 1159.15 703.26V706.5H1162.79V684.58ZM1167.58 695.5C1167.58 702.46 1172.02 706.86 1178.26 706.86C1183.7 706.86 1187.26 703.82 1188.38 699.46H1184.46C1183.66 702.22 1181.5 703.78 1178.26 703.78C1174.26 703.78 1171.3 700.94 1171.3 695.5C1171.3 690.14 1174.26 687.3 1178.26 687.3C1181.5 687.3 1183.7 688.98 1184.46 691.62H1188.38C1187.26 687.02 1183.7 684.22 1178.26 684.22C1172.02 684.22 1167.58 688.62 1167.58 695.5ZM1194.04 700.5C1194.04 704.9 1196.24 706.5 1200.12 706.5H1203.4V703.42H1200.72C1198.48 703.42 1197.68 702.66 1197.68 700.5V687.58H1203.4V684.58H1197.68V679.06H1194.04V684.58H1191.2V687.58H1194.04V700.5ZM1227.25 684.58H1223.61V696.62C1223.61 701.34 1221.09 703.66 1217.33 703.66C1213.65 703.66 1211.21 701.38 1211.21 696.94V684.58H1207.61V697.42C1207.61 703.7 1211.57 706.82 1216.61 706.82C1219.53 706.82 1222.21 705.54 1223.61 703.26V706.5H1227.25V684.58ZM1237.03 694.58C1237.03 689.5 1239.67 687.94 1243.15 687.94H1244.11V684.18C1240.63 684.18 1238.27 685.7 1237.03 688.14V684.58H1233.39V706.5H1237.03V694.58ZM1257.63 687.3C1261.39 687.3 1264.59 689.66 1264.55 693.94H1250.71C1251.11 689.66 1254.07 687.3 1257.63 687.3ZM1267.87 699.74H1263.95C1263.15 702.1 1261.07 703.78 1257.79 703.78C1254.07 703.78 1250.95 701.34 1250.67 696.9H1268.19C1268.27 696.14 1268.31 695.5 1268.31 694.7C1268.31 688.7 1264.15 684.22 1257.79 684.22C1251.39 684.22 1246.95 688.58 1246.95 695.5C1246.95 702.46 1251.55 706.86 1257.79 706.86C1263.23 706.86 1266.75 703.74 1267.87 699.74ZM1299.82 706.5H1303.42V693.58C1303.42 687.3 1299.54 684.18 1294.46 684.18C1291.5 684.18 1288.86 685.42 1287.42 687.7V684.58H1283.78V706.5H1287.42V694.38C1287.42 689.66 1289.98 687.34 1293.7 687.34C1297.38 687.34 1299.82 689.62 1299.82 694.1V706.5ZM1330.17 695.5C1330.17 688.58 1325.33 684.22 1319.09 684.22C1312.89 684.22 1308.01 688.58 1308.01 695.5C1308.01 702.46 1312.73 706.86 1318.93 706.86C1325.17 706.86 1330.17 702.46 1330.17 695.5ZM1311.73 695.5C1311.73 689.98 1315.21 687.38 1319.05 687.38C1322.81 687.38 1326.45 689.98 1326.45 695.5C1326.45 701.06 1322.73 703.66 1318.93 703.66C1315.13 703.66 1311.73 701.06 1311.73 695.5ZM1335.76 700.5C1335.76 704.9 1337.96 706.5 1341.84 706.5H1345.12V703.42H1342.43C1340.2 703.42 1339.4 702.66 1339.4 700.5V687.58H1345.12V684.58H1339.4V679.06H1335.76V684.58H1332.92V687.58H1335.76V700.5ZM1.72 755.46C1.72 762.26 6.24 766.86 12.08 766.86C16.12 766.86 18.96 764.78 20.28 762.42V766.5H23.96V744.58H20.28V748.58C19 746.3 16.2 744.22 12.12 744.22C6.24 744.22 1.72 748.62 1.72 755.46ZM20.28 755.5C20.28 760.66 16.84 763.66 12.84 763.66C8.84 763.66 5.44 760.62 5.44 755.46C5.44 750.3 8.84 747.38 12.84 747.38C16.84 747.38 20.28 750.42 20.28 755.5ZM27.5113 744.58L36.1113 766.5H40.3513L48.9513 744.58H45.0713L38.2713 763.14L31.4313 744.58H27.5113ZM51.1731 755.46C51.1731 762.26 55.6931 766.86 61.5331 766.86C65.5731 766.86 68.4131 764.78 69.7331 762.42V766.5H73.4131V744.58H69.7331V748.58C68.4531 746.3 65.6531 744.22 61.5731 744.22C55.6931 744.22 51.1731 748.62 51.1731 755.46ZM69.7331 755.5C69.7331 760.66 66.2931 763.66 62.2931 763.66C58.2931 763.66 54.8931 760.62 54.8931 755.46C54.8931 750.3 58.2931 747.38 62.2931 747.38C66.2931 747.38 69.7331 750.42 69.7331 755.5ZM79.5644 766.5H83.2044V744.58H79.5644V766.5ZM81.4444 741.02C82.7644 741.02 83.8444 739.94 83.8444 738.54C83.8444 737.14 82.7644 736.06 81.4444 736.06C80.0444 736.06 78.9644 737.14 78.9644 738.54C78.9644 739.94 80.0444 741.02 81.4444 741.02ZM89.4081 766.5H93.0481V736.9H89.4081V766.5ZM97.8919 755.46C97.8919 762.26 102.412 766.86 108.252 766.86C112.292 766.86 115.132 764.78 116.452 762.42V766.5H120.132V744.58H116.452V748.58C115.172 746.3 112.372 744.22 108.292 744.22C102.412 744.22 97.8919 748.62 97.8919 755.46ZM116.452 755.5C116.452 760.66 113.012 763.66 109.012 763.66C105.012 763.66 101.612 760.62 101.612 755.46C101.612 750.3 105.012 747.38 109.012 747.38C113.012 747.38 116.452 750.42 116.452 755.5ZM129.923 748.66V736.9H126.283V766.5H129.923V762.46C131.283 764.86 134.123 766.86 138.123 766.86C144.003 766.86 148.523 762.26 148.523 755.46C148.523 748.62 144.043 744.22 138.123 744.22C134.243 744.22 131.323 746.22 129.923 748.66ZM144.803 755.46C144.803 760.62 141.403 763.66 137.363 763.66C133.403 763.66 129.923 760.66 129.923 755.5C129.923 750.42 133.403 747.38 137.363 747.38C141.403 747.38 144.803 750.3 144.803 755.46ZM153.314 766.5H156.954V736.9H153.314V766.5ZM172.478 747.3C176.238 747.3 179.438 749.66 179.398 753.94H165.558C165.958 749.66 168.918 747.3 172.478 747.3ZM182.718 759.74H178.798C177.998 762.1 175.918 763.78 172.638 763.78C168.918 763.78 165.798 761.34 165.518 756.9H183.038C183.118 756.14 183.158 755.5 183.158 754.7C183.158 748.7 178.998 744.22 172.638 744.22C166.238 744.22 161.798 748.58 161.798 755.5C161.798 762.46 166.398 766.86 172.638 766.86C178.078 766.86 181.598 763.74 182.718 759.74ZM199.427 760.5C199.427 764.9 201.627 766.5 205.507 766.5H208.787V763.42H206.107C203.867 763.42 203.067 762.66 203.067 760.5V747.58H208.787V744.58H203.067V739.06H199.427V744.58H196.587V747.58H199.427V760.5ZM233.997 755.5C233.997 748.58 229.157 744.22 222.917 744.22C216.717 744.22 211.837 748.58 211.837 755.5C211.837 762.46 216.557 766.86 222.757 766.86C228.997 766.86 233.997 762.46 233.997 755.5ZM215.557 755.5C215.557 749.98 219.037 747.38 222.877 747.38C226.637 747.38 230.277 749.98 230.277 755.5C230.277 761.06 226.557 763.66 222.757 763.66C218.957 763.66 215.557 761.06 215.557 755.5ZM281.087 766.5H284.687V753.58C284.687 747.3 280.807 744.18 275.807 744.18C272.447 744.18 269.327 745.9 268.047 749.06C266.607 745.78 263.607 744.18 260.007 744.18C257.127 744.18 254.527 745.42 253.087 747.74V744.58H249.447V766.5H253.087V754.42C253.087 749.7 255.607 747.34 259.287 747.34C262.887 747.34 265.287 749.62 265.287 754.1V766.5H268.887V754.42C268.887 749.7 271.407 747.34 275.087 747.34C278.687 747.34 281.087 749.62 281.087 754.1V766.5ZM311.458 755.5C311.458 748.58 306.618 744.22 300.378 744.22C294.178 744.22 289.298 748.58 289.298 755.5C289.298 762.46 294.018 766.86 300.218 766.86C306.458 766.86 311.458 762.46 311.458 755.5ZM293.018 755.5C293.018 749.98 296.498 747.38 300.338 747.38C304.098 747.38 307.738 749.98 307.738 755.5C307.738 761.06 304.018 763.66 300.218 763.66C296.418 763.66 293.018 761.06 293.018 755.5ZM332.004 760.54C331.844 752.7 319.124 755.54 319.124 750.34C319.124 748.58 320.724 747.3 323.404 747.3C326.324 747.3 328.004 748.9 328.164 751.1H331.804C331.564 746.82 328.364 744.22 323.524 744.22C318.644 744.22 315.484 746.98 315.484 750.34C315.484 758.5 328.444 755.66 328.444 760.54C328.444 762.34 326.844 763.78 323.964 763.78C320.884 763.78 319.004 762.18 318.804 760.06H315.044C315.284 764.06 318.884 766.86 324.004 766.86C328.844 766.86 332.004 764.14 332.004 760.54ZM337.943 760.5C337.943 764.9 340.143 766.5 344.023 766.5H347.303V763.42H344.622C342.383 763.42 341.583 762.66 341.583 760.5V747.58H347.303V744.58H341.583V739.06H337.943V744.58H335.103V747.58H337.943V760.5ZM380.657 738.58V760.74L366.017 738.58H362.377V766.5H366.017V744.3L380.657 766.5H384.297V738.58H380.657ZM390.502 766.5H394.142V753.94H403.982V750.98H394.142V741.58H406.262V738.62H390.502V766.5ZM408.938 741.58H416.578V766.5H420.218V741.58H427.818V738.62H408.938V741.58ZM446.603 748.62V744.58H442.963V776.9H446.603V762.46C447.963 764.7 450.803 766.86 454.803 766.86C460.683 766.86 465.203 762.26 465.203 755.46C465.203 748.62 460.683 744.22 454.803 744.22C450.803 744.22 447.923 746.3 446.603 748.62ZM461.483 755.46C461.483 760.62 458.083 763.66 454.043 763.66C450.083 763.66 446.603 760.66 446.603 755.5C446.603 750.42 450.083 747.38 454.043 747.38C458.083 747.38 461.483 750.3 461.483 755.46ZM473.634 754.58C473.634 749.5 476.274 747.94 479.754 747.94H480.714V744.18C477.234 744.18 474.874 745.7 473.634 748.14V744.58H469.994V766.5H473.634V754.58ZM505.716 755.5C505.716 748.58 500.876 744.22 494.636 744.22C488.436 744.22 483.556 748.58 483.556 755.5C483.556 762.46 488.276 766.86 494.476 766.86C500.716 766.86 505.716 762.46 505.716 755.5ZM487.276 755.5C487.276 749.98 490.756 747.38 494.596 747.38C498.356 747.38 501.996 749.98 501.996 755.5C501.996 761.06 498.276 763.66 494.476 763.66C490.676 763.66 487.276 761.06 487.276 755.5ZM512.462 741.02C513.822 741.02 514.902 739.94 514.902 738.54C514.902 737.14 513.822 736.06 512.462 736.06C511.102 736.06 510.022 737.14 510.022 738.54C510.022 739.94 511.102 741.02 512.462 741.02ZM510.622 744.58V771.18C510.622 773.1 509.862 773.82 507.862 773.82H506.342V776.9H508.462C512.182 776.9 514.262 775.22 514.262 771.26V744.58H510.622ZM529.744 747.3C533.504 747.3 536.704 749.66 536.664 753.94H522.824C523.224 749.66 526.184 747.3 529.744 747.3ZM539.984 759.74H536.064C535.264 762.1 533.184 763.78 529.904 763.78C526.184 763.78 523.064 761.34 522.784 756.9H540.304C540.384 756.14 540.424 755.5 540.424 754.7C540.424 748.7 536.264 744.22 529.904 744.22C523.504 744.22 519.064 748.58 519.064 755.5C519.064 762.46 523.664 766.86 529.904 766.86C535.344 766.86 538.864 763.74 539.984 759.74ZM543.868 755.5C543.868 762.46 548.308 766.86 554.548 766.86C559.988 766.86 563.548 763.82 564.668 759.46H560.748C559.948 762.22 557.788 763.78 554.548 763.78C550.548 763.78 547.588 760.94 547.588 755.5C547.588 750.14 550.548 747.3 554.548 747.3C557.788 747.3 559.988 748.98 560.748 751.62H564.668C563.548 747.02 559.988 744.22 554.548 744.22C548.308 744.22 543.868 748.62 543.868 755.5ZM570.325 760.5C570.325 764.9 572.525 766.5 576.405 766.5H579.685V763.42H577.005C574.765 763.42 573.965 762.66 573.965 760.5V747.58H579.685V744.58H573.965V739.06H570.325V744.58H567.485V747.58H570.325V760.5ZM599.856 760.54C599.696 752.7 586.976 755.54 586.976 750.34C586.976 748.58 588.576 747.3 591.256 747.3C594.176 747.3 595.856 748.9 596.016 751.1H599.656C599.416 746.82 596.216 744.22 591.376 744.22C586.496 744.22 583.336 746.98 583.336 750.34C583.336 758.5 596.296 755.66 596.296 760.54C596.296 762.34 594.696 763.78 591.816 763.78C588.736 763.78 586.856 762.18 586.656 760.06H582.896C583.136 764.06 586.736 766.86 591.856 766.86C596.696 766.86 599.856 764.14 599.856 760.54ZM608.554 764.26C608.554 762.86 607.474 761.78 606.154 761.78C604.754 761.78 603.674 762.86 603.674 764.26C603.674 765.66 604.754 766.74 606.154 766.74C607.474 766.74 608.554 765.66 608.554 764.26ZM624.057 766.5H627.697V738.62H624.057V766.5ZM649.94 766.5H653.54V753.58C653.54 747.3 649.66 744.18 644.58 744.18C641.62 744.18 638.98 745.42 637.54 747.7V744.58H633.9V766.5H637.54V754.38C637.54 749.66 640.1 747.34 643.82 747.34C647.5 747.34 649.94 749.62 649.94 754.1V766.5ZM660.286 760.5C660.286 764.9 662.486 766.5 666.366 766.5H669.646V763.42H666.966C664.726 763.42 663.926 762.66 663.926 760.5V747.58H669.646V744.58H663.926V739.06H660.286V744.58H657.446V747.58H660.286V760.5ZM683.377 747.3C687.137 747.3 690.337 749.66 690.297 753.94H676.457C676.857 749.66 679.817 747.3 683.377 747.3ZM693.617 759.74H689.697C688.897 762.1 686.817 763.78 683.537 763.78C679.817 763.78 676.697 761.34 676.417 756.9H693.937C694.017 756.14 694.057 755.5 694.057 754.7C694.057 748.7 689.897 744.22 683.537 744.22C677.137 744.22 672.697 748.58 672.697 755.5C672.697 762.46 677.297 766.86 683.537 766.86C688.977 766.86 692.497 763.74 693.617 759.74ZM697.501 755.46C697.501 762.26 702.021 766.86 707.901 766.86C711.901 766.86 714.741 764.74 716.061 762.38V766.98C716.061 771.66 713.141 774.14 709.261 774.14C705.661 774.14 703.061 772.34 702.261 769.7H698.661C699.381 774.38 703.501 777.3 709.261 777.3C715.701 777.3 719.741 773.02 719.741 766.98V744.58H716.061V748.58C714.781 746.22 711.901 744.22 707.901 744.22C702.021 744.22 697.501 748.62 697.501 755.46ZM716.061 755.5C716.061 760.66 712.621 763.66 708.621 763.66C704.621 763.66 701.221 760.62 701.221 755.46C701.221 750.3 704.621 747.38 708.621 747.38C712.621 747.38 716.061 750.42 716.061 755.5ZM729.533 754.58C729.533 749.5 732.173 747.94 735.653 747.94H736.613V744.18C733.133 744.18 730.773 745.7 729.533 748.14V744.58H725.893V766.5H729.533V754.58ZM739.454 755.46C739.454 762.26 743.974 766.86 749.814 766.86C753.854 766.86 756.694 764.78 758.014 762.42V766.5H761.694V744.58H758.014V748.58C756.734 746.3 753.934 744.22 749.854 744.22C743.974 744.22 739.454 748.62 739.454 755.46ZM758.014 755.5C758.014 760.66 754.574 763.66 750.574 763.66C746.574 763.66 743.174 760.62 743.174 755.46C743.174 750.3 746.574 747.38 750.574 747.38C754.574 747.38 758.014 750.42 758.014 755.5ZM768.646 760.5C768.646 764.9 770.846 766.5 774.726 766.5H778.006V763.42H775.326C773.086 763.42 772.286 762.66 772.286 760.5V747.58H778.006V744.58H772.286V739.06H768.646V744.58H765.806V747.58H768.646V760.5ZM782.416 766.5H786.056V744.58H782.416V766.5ZM784.296 741.02C785.616 741.02 786.696 739.94 786.696 738.54C786.696 737.14 785.616 736.06 784.296 736.06C782.896 736.06 781.816 737.14 781.816 738.54C781.816 739.94 782.896 741.02 784.296 741.02ZM808.3 766.5H811.9V753.58C811.9 747.3 808.02 744.18 802.94 744.18C799.98 744.18 797.34 745.42 795.9 747.7V744.58H792.26V766.5H795.9V754.38C795.9 749.66 798.46 747.34 802.18 747.34C805.86 747.34 808.3 749.62 808.3 754.1V766.5ZM816.486 755.46C816.486 762.26 821.006 766.86 826.886 766.86C830.886 766.86 833.726 764.74 835.046 762.38V766.98C835.046 771.66 832.126 774.14 828.246 774.14C824.646 774.14 822.046 772.34 821.246 769.7H817.646C818.366 774.38 822.486 777.3 828.246 777.3C834.686 777.3 838.726 773.02 838.726 766.98V744.58H835.046V748.58C833.766 746.22 830.886 744.22 826.886 744.22C821.006 744.22 816.486 748.62 816.486 755.46ZM835.046 755.5C835.046 760.66 831.606 763.66 827.606 763.66C823.606 763.66 820.206 760.62 820.206 755.46C820.206 750.3 823.606 747.38 827.606 747.38C831.606 747.38 835.046 750.42 835.046 755.5ZM861.181 766.54L865.221 766.5L871.941 744.06L878.421 766.5H882.501L890.581 738.62H886.661L880.541 762.18L874.141 738.62H870.061L863.341 762.26L857.261 738.62H853.381L861.181 766.54ZM903.884 747.3C907.644 747.3 910.844 749.66 910.804 753.94H896.964C897.364 749.66 900.324 747.3 903.884 747.3ZM914.124 759.74H910.204C909.404 762.1 907.324 763.78 904.044 763.78C900.324 763.78 897.204 761.34 896.924 756.9H914.444C914.524 756.14 914.564 755.5 914.564 754.7C914.564 748.7 910.404 744.22 904.044 744.22C897.644 744.22 893.204 748.58 893.204 755.5C893.204 762.46 897.804 766.86 904.044 766.86C909.484 766.86 913.004 763.74 914.124 759.74ZM923.009 748.66V736.9H919.369V766.5H923.009V762.46C924.369 764.86 927.209 766.86 931.209 766.86C937.089 766.86 941.609 762.26 941.609 755.46C941.609 748.62 937.129 744.22 931.209 744.22C927.329 744.22 924.409 746.22 923.009 748.66ZM937.889 755.46C937.889 760.62 934.489 763.66 930.449 763.66C926.489 763.66 923.009 760.66 923.009 755.5C923.009 750.42 926.489 747.38 930.449 747.38C934.489 747.38 937.889 750.3 937.889 755.46ZM945.72 744.86H949.28C949.64 742.06 951.68 740.14 955.08 740.14C958.56 740.14 960.4 742.06 960.4 744.82C960.4 748.18 957.8 749.66 952.96 749.7H952V752.74H952.92C958.12 752.74 960.96 754.3 960.96 758.38C960.96 761.34 959.12 763.62 955.24 763.62C951.4 763.62 949.16 761.26 948.8 758.18H945.28C945.72 763.78 949.8 766.7 955.28 766.7C961.32 766.7 964.44 763.18 964.44 758.7C964.44 754.54 962.16 752.06 958.8 751.26V751.06C961.84 750.38 963.92 747.78 963.92 744.46C963.92 740.3 960.84 737.02 955.2 737.02C949.84 737.02 946.08 739.9 945.72 744.86ZM979.259 755.46C979.259 762.26 983.779 766.86 989.619 766.86C993.659 766.86 996.499 764.78 997.819 762.42V766.5H1001.5V744.58H997.819V748.58C996.539 746.3 993.739 744.22 989.659 744.22C983.779 744.22 979.259 748.62 979.259 755.46ZM997.819 755.5C997.819 760.66 994.379 763.66 990.379 763.66C986.379 763.66 982.979 760.62 982.979 755.46C982.979 750.3 986.379 747.38 990.379 747.38C994.379 747.38 997.819 750.42 997.819 755.5ZM1027.09 744.58H1023.45V756.62C1023.45 761.34 1020.93 763.66 1017.17 763.66C1013.49 763.66 1011.05 761.38 1011.05 756.94V744.58H1007.45V757.42C1007.45 763.7 1011.41 766.82 1016.45 766.82C1019.37 766.82 1022.05 765.54 1023.45 763.26V766.5H1027.09V744.58ZM1031.88 755.46C1031.88 762.26 1036.4 766.86 1042.28 766.86C1046.28 766.86 1049.12 764.82 1050.44 762.38V766.5H1054.12V736.9H1050.44V748.5C1048.92 745.98 1045.76 744.22 1042.32 744.22C1036.4 744.22 1031.88 748.62 1031.88 755.46ZM1050.44 755.5C1050.44 760.66 1047 763.66 1043 763.66C1039 763.66 1035.6 760.62 1035.6 755.46C1035.6 750.3 1039 747.38 1043 747.38C1047 747.38 1050.44 750.42 1050.44 755.5ZM1060.27 766.5H1063.91V744.58H1060.27V766.5ZM1062.15 741.02C1063.47 741.02 1064.55 739.94 1064.55 738.54C1064.55 737.14 1063.47 736.06 1062.15 736.06C1060.75 736.06 1059.67 737.14 1059.67 738.54C1059.67 739.94 1060.75 741.02 1062.15 741.02ZM1079.43 747.3C1083.19 747.3 1086.39 749.66 1086.35 753.94H1072.51C1072.91 749.66 1075.87 747.3 1079.43 747.3ZM1089.67 759.74H1085.75C1084.95 762.1 1082.87 763.78 1079.59 763.78C1075.87 763.78 1072.75 761.34 1072.47 756.9H1089.99C1090.07 756.14 1090.11 755.5 1090.11 754.7C1090.11 748.7 1085.95 744.22 1079.59 744.22C1073.19 744.22 1068.75 748.58 1068.75 755.5C1068.75 762.46 1073.35 766.86 1079.59 766.86C1085.03 766.86 1088.55 763.74 1089.67 759.74ZM1110.96 766.5H1114.56V753.58C1114.56 747.3 1110.68 744.18 1105.6 744.18C1102.64 744.18 1100 745.42 1098.56 747.7V744.58H1094.92V766.5H1098.56V754.38C1098.56 749.66 1101.12 747.34 1104.84 747.34C1108.52 747.34 1110.96 749.62 1110.96 754.1V766.5ZM1119.14 755.5C1119.14 762.46 1123.58 766.86 1129.82 766.86C1135.26 766.86 1138.82 763.82 1139.94 759.46H1136.02C1135.22 762.22 1133.06 763.78 1129.82 763.78C1125.82 763.78 1122.86 760.94 1122.86 755.5C1122.86 750.14 1125.82 747.3 1129.82 747.3C1133.06 747.3 1135.26 748.98 1136.02 751.62H1139.94C1138.82 747.02 1135.26 744.22 1129.82 744.22C1123.58 744.22 1119.14 748.62 1119.14 755.5ZM1154.12 747.3C1157.88 747.3 1161.08 749.66 1161.04 753.94H1147.2C1147.6 749.66 1150.56 747.3 1154.12 747.3ZM1164.36 759.74H1160.44C1159.64 762.1 1157.56 763.78 1154.28 763.78C1150.56 763.78 1147.44 761.34 1147.16 756.9H1164.68C1164.76 756.14 1164.8 755.5 1164.8 754.7C1164.8 748.7 1160.64 744.22 1154.28 744.22C1147.88 744.22 1143.44 748.58 1143.44 755.5C1143.44 762.46 1148.04 766.86 1154.28 766.86C1159.72 766.86 1163.24 763.74 1164.36 759.74ZM1185.36 760.54C1185.2 752.7 1172.48 755.54 1172.48 750.34C1172.48 748.58 1174.08 747.3 1176.76 747.3C1179.68 747.3 1181.36 748.9 1181.52 751.1H1185.16C1184.92 746.82 1181.72 744.22 1176.88 744.22C1172 744.22 1168.84 746.98 1168.84 750.34C1168.84 758.5 1181.8 755.66 1181.8 760.54C1181.8 762.34 1180.2 763.78 1177.32 763.78C1174.24 763.78 1172.36 762.18 1172.16 760.06H1168.4C1168.64 764.06 1172.24 766.86 1177.36 766.86C1182.2 766.86 1185.36 764.14 1185.36 760.54ZM1201.17 766.5H1204.81V744.58H1201.17V766.5ZM1203.05 741.02C1204.37 741.02 1205.45 739.94 1205.45 738.54C1205.45 737.14 1204.37 736.06 1203.05 736.06C1201.65 736.06 1200.57 737.14 1200.57 738.54C1200.57 739.94 1201.65 741.02 1203.05 741.02ZM1227.05 766.5H1230.65V753.58C1230.65 747.3 1226.77 744.18 1221.69 744.18C1218.73 744.18 1216.09 745.42 1214.65 747.7V744.58H1211.01V766.5H1214.65V754.38C1214.65 749.66 1217.21 747.34 1220.93 747.34C1224.61 747.34 1227.05 749.62 1227.05 754.1V766.5ZM1237.4 760.5C1237.4 764.9 1239.6 766.5 1243.48 766.5H1246.76V763.42H1244.08C1241.84 763.42 1241.04 762.66 1241.04 760.5V747.58H1246.76V744.58H1241.04V739.06H1237.4V744.58H1234.56V747.58H1237.4V760.5ZM1271.97 755.5C1271.97 748.58 1267.13 744.22 1260.89 744.22C1254.69 744.22 1249.81 748.58 1249.81 755.5C1249.81 762.46 1254.53 766.86 1260.73 766.86C1266.97 766.86 1271.97 762.46 1271.97 755.5ZM1253.53 755.5C1253.53 749.98 1257.01 747.38 1260.85 747.38C1264.61 747.38 1268.25 749.98 1268.25 755.5C1268.25 761.06 1264.53 763.66 1260.73 763.66C1256.93 763.66 1253.53 761.06 1253.53 755.5ZM12.4 807.3C16.16 807.3 19.36 809.66 19.32 813.94H5.48C5.88 809.66 8.84 807.3 12.4 807.3ZM22.64 819.74H18.72C17.92 822.1 15.84 823.78 12.56 823.78C8.84 823.78 5.72 821.34 5.44 816.9H22.96C23.04 816.14 23.08 815.5 23.08 814.7C23.08 808.7 18.92 804.22 12.56 804.22C6.16 804.22 1.72 808.58 1.72 815.5C1.72 822.46 6.32 826.86 12.56 826.86C18 826.86 21.52 823.74 22.64 819.74ZM39.3247 826.5H43.4447L36.3647 815.42L43.4047 804.58H39.6047L34.6447 812.7L29.4447 804.58H25.3247L32.4047 815.62L25.3247 826.5H29.1247L34.1247 818.34L39.3247 826.5ZM47.0253 826.5H50.6653V804.58H47.0253V826.5ZM48.9053 801.02C50.2253 801.02 51.3053 799.94 51.3053 798.54C51.3053 797.14 50.2253 796.06 48.9053 796.06C47.5053 796.06 46.4253 797.14 46.4253 798.54C46.4253 799.94 47.5053 801.02 48.9053 801.02ZM72.6291 820.54C72.4691 812.7 59.7491 815.54 59.7491 810.34C59.7491 808.58 61.3491 807.3 64.0291 807.3C66.9491 807.3 68.6291 808.9 68.7891 811.1H72.4291C72.1891 806.82 68.9891 804.22 64.1491 804.22C59.2691 804.22 56.1091 806.98 56.1091 810.34C56.1091 818.5 69.0691 815.66 69.0691 820.54C69.0691 822.34 67.4691 823.78 64.5891 823.78C61.5091 823.78 59.6291 822.18 59.4291 820.06H55.6691C55.9091 824.06 59.5091 826.86 64.6291 826.86C69.4691 826.86 72.6291 824.14 72.6291 820.54ZM78.5675 820.5C78.5675 824.9 80.7675 826.5 84.6475 826.5H87.9275V823.42H85.2475C83.0075 823.42 82.2075 822.66 82.2075 820.5V807.58H87.9275V804.58H82.2075V799.06H78.5675V804.58H75.7275V807.58H78.5675V820.5ZM92.3378 826.5H95.9778V804.58H92.3378V826.5ZM94.2178 801.02C95.5378 801.02 96.6178 799.94 96.6178 798.54C96.6178 797.14 95.5378 796.06 94.2178 796.06C92.8178 796.06 91.7378 797.14 91.7378 798.54C91.7378 799.94 92.8178 801.02 94.2178 801.02ZM118.222 826.5H121.822V813.58C121.822 807.3 117.942 804.18 112.862 804.18C109.902 804.18 107.262 805.42 105.822 807.7V804.58H102.182V826.5H105.822V814.38C105.822 809.66 108.382 807.34 112.102 807.34C115.782 807.34 118.222 809.62 118.222 814.1V826.5ZM126.408 815.46C126.408 822.26 130.928 826.86 136.808 826.86C140.808 826.86 143.648 824.74 144.968 822.38V826.98C144.968 831.66 142.048 834.14 138.168 834.14C134.568 834.14 131.968 832.34 131.168 829.7H127.568C128.288 834.38 132.408 837.3 138.168 837.3C144.608 837.3 148.648 833.02 148.648 826.98V804.58H144.968V808.58C143.688 806.22 140.808 804.22 136.808 804.22C130.928 804.22 126.408 808.62 126.408 815.46ZM144.968 815.5C144.968 820.66 141.528 823.66 137.528 823.66C133.528 823.66 130.128 820.62 130.128 815.46C130.128 810.3 133.528 807.38 137.528 807.38C141.528 807.38 144.968 810.42 144.968 815.5ZM164.103 815.46C164.103 822.26 168.623 826.86 174.503 826.86C178.503 826.86 181.343 824.82 182.663 822.38V826.5H186.343V796.9H182.663V808.5C181.143 805.98 177.983 804.22 174.543 804.22C168.623 804.22 164.103 808.62 164.103 815.46ZM182.663 815.5C182.663 820.66 179.223 823.66 175.223 823.66C171.223 823.66 167.823 820.62 167.823 815.46C167.823 810.3 171.223 807.38 175.223 807.38C179.223 807.38 182.663 810.42 182.663 815.5ZM196.134 814.58C196.134 809.5 198.774 807.94 202.254 807.94H203.214V804.18C199.734 804.18 197.374 805.7 196.134 808.14V804.58H192.494V826.5H196.134V814.58ZM228.216 815.5C228.216 808.58 223.376 804.22 217.136 804.22C210.936 804.22 206.056 808.58 206.056 815.5C206.056 822.46 210.776 826.86 216.976 826.86C223.216 826.86 228.216 822.46 228.216 815.5ZM209.776 815.5C209.776 809.98 213.256 807.38 217.096 807.38C220.856 807.38 224.496 809.98 224.496 815.5C224.496 821.06 220.776 823.66 216.976 823.66C213.176 823.66 209.776 821.06 209.776 815.5ZM236.642 808.62V804.58H233.002V836.9H236.642V822.46C238.002 824.7 240.842 826.86 244.842 826.86C250.722 826.86 255.242 822.26 255.242 815.46C255.242 808.62 250.722 804.22 244.842 804.22C240.842 804.22 237.962 806.3 236.642 808.62ZM251.522 815.46C251.522 820.62 248.122 823.66 244.082 823.66C240.122 823.66 236.642 820.66 236.642 815.5C236.642 810.42 240.122 807.38 244.082 807.38C248.122 807.38 251.522 810.3 251.522 815.46ZM286.457 820.54C286.297 812.7 273.577 815.54 273.577 810.34C273.577 808.58 275.177 807.3 277.857 807.3C280.777 807.3 282.457 808.9 282.617 811.1H286.257C286.017 806.82 282.817 804.22 277.977 804.22C273.097 804.22 269.937 806.98 269.937 810.34C269.937 818.5 282.897 815.66 282.897 820.54C282.897 822.34 281.297 823.78 278.417 823.78C275.337 823.78 273.457 822.18 273.257 820.06H269.497C269.737 824.06 273.337 826.86 278.457 826.86C283.297 826.86 286.457 824.14 286.457 820.54ZM291.596 826.5H295.236V814.38C295.236 809.66 297.796 807.34 301.516 807.34C305.196 807.34 307.636 809.62 307.636 814.1V826.5H311.236V813.58C311.236 807.3 307.356 804.18 302.476 804.18C299.396 804.18 296.676 805.42 295.236 807.74V796.9H291.596V826.5ZM317.182 826.5H320.822V804.58H317.182V826.5ZM319.062 801.02C320.382 801.02 321.462 799.94 321.462 798.54C321.462 797.14 320.382 796.06 319.062 796.06C317.662 796.06 316.582 797.14 316.582 798.54C316.582 799.94 317.662 801.02 319.062 801.02ZM330.665 808.62V804.58H327.025V836.9H330.665V822.46C332.025 824.7 334.865 826.86 338.865 826.86C344.745 826.86 349.265 822.26 349.265 815.46C349.265 808.62 344.745 804.22 338.865 804.22C334.865 804.22 331.985 806.3 330.665 808.62ZM345.545 815.46C345.545 820.62 342.145 823.66 338.105 823.66C334.145 823.66 330.665 820.66 330.665 815.5C330.665 810.42 334.145 807.38 338.105 807.38C342.145 807.38 345.545 810.3 345.545 815.46ZM357.697 808.62V804.58H354.057V836.9H357.697V822.46C359.057 824.7 361.897 826.86 365.897 826.86C371.777 826.86 376.297 822.26 376.297 815.46C376.297 808.62 371.777 804.22 365.897 804.22C361.897 804.22 359.017 806.3 357.697 808.62ZM372.577 815.46C372.577 820.62 369.177 823.66 365.137 823.66C361.177 823.66 357.697 820.66 357.697 815.5C357.697 810.42 361.177 807.38 365.137 807.38C369.177 807.38 372.577 810.3 372.577 815.46ZM381.088 826.5H384.728V804.58H381.088V826.5ZM382.968 801.02C384.288 801.02 385.368 799.94 385.368 798.54C385.368 797.14 384.288 796.06 382.968 796.06C381.568 796.06 380.488 797.14 380.488 798.54C380.488 799.94 381.568 801.02 382.968 801.02ZM406.972 826.5H410.572V813.58C410.572 807.3 406.692 804.18 401.612 804.18C398.652 804.18 396.012 805.42 394.572 807.7V804.58H390.932V826.5H394.572V814.38C394.572 809.66 397.132 807.34 400.852 807.34C404.532 807.34 406.972 809.62 406.972 814.1V826.5ZM415.158 815.46C415.158 822.26 419.678 826.86 425.558 826.86C429.558 826.86 432.398 824.74 433.718 822.38V826.98C433.718 831.66 430.798 834.14 426.918 834.14C423.318 834.14 420.718 832.34 419.918 829.7H416.318C417.038 834.38 421.158 837.3 426.918 837.3C433.358 837.3 437.398 833.02 437.398 826.98V804.58H433.718V808.58C432.438 806.22 429.558 804.22 425.558 804.22C419.678 804.22 415.158 808.62 415.158 815.46ZM433.718 815.5C433.718 820.66 430.278 823.66 426.278 823.66C422.278 823.66 418.878 820.62 418.878 815.46C418.878 810.3 422.278 807.38 426.278 807.38C430.278 807.38 433.718 810.42 433.718 815.5ZM454.213 826.5H457.853V804.58H454.213V826.5ZM456.093 801.02C457.413 801.02 458.493 799.94 458.493 798.54C458.493 797.14 457.413 796.06 456.093 796.06C454.693 796.06 453.613 797.14 453.613 798.54C453.613 799.94 454.693 801.02 456.093 801.02ZM480.097 826.5H483.697V813.58C483.697 807.3 479.817 804.18 474.737 804.18C471.777 804.18 469.137 805.42 467.697 807.7V804.58H464.057V826.5H467.697V814.38C467.697 809.66 470.257 807.34 473.977 807.34C477.657 807.34 480.097 809.62 480.097 814.1V826.5ZM490.323 826.5H493.963V807.58H498.563V804.58H493.963V803.02C493.963 800.18 495.043 798.98 498.322 798.98V795.94C492.723 795.94 490.323 798.14 490.323 803.02V804.58H487.483V807.58H490.323V826.5ZM506.447 814.58C506.447 809.5 509.087 807.94 512.567 807.94H513.527V804.18C510.047 804.18 507.687 805.7 506.447 808.14V804.58H502.807V826.5H506.447V814.58ZM516.368 815.46C516.368 822.26 520.888 826.86 526.728 826.86C530.768 826.86 533.608 824.78 534.928 822.42V826.5H538.608V804.58H534.928V808.58C533.648 806.3 530.848 804.22 526.768 804.22C520.888 804.22 516.368 808.62 516.368 815.46ZM534.928 815.5C534.928 820.66 531.488 823.66 527.488 823.66C523.488 823.66 520.088 820.62 520.088 815.46C520.088 810.3 523.488 807.38 527.488 807.38C531.488 807.38 534.928 810.42 534.928 815.5ZM560.52 820.54C560.36 812.7 547.64 815.54 547.64 810.34C547.64 808.58 549.24 807.3 551.92 807.3C554.84 807.3 556.52 808.9 556.68 811.1H560.32C560.08 806.82 556.88 804.22 552.04 804.22C547.16 804.22 544 806.98 544 810.34C544 818.5 556.96 815.66 556.96 820.54C556.96 822.34 555.36 823.78 552.48 823.78C549.4 823.78 547.52 822.18 547.32 820.06H543.56C543.8 824.06 547.4 826.86 552.52 826.86C557.36 826.86 560.52 824.14 560.52 820.54ZM566.458 820.5C566.458 824.9 568.658 826.5 572.538 826.5H575.818V823.42H573.138C570.898 823.42 570.098 822.66 570.098 820.5V807.58H575.818V804.58H570.098V799.06H566.458V804.58H563.618V807.58H566.458V820.5ZM583.868 814.58C583.868 809.5 586.508 807.94 589.988 807.94H590.948V804.18C587.468 804.18 585.108 805.7 583.868 808.14V804.58H580.228V826.5H583.868V814.58ZM614.59 804.58H610.95V816.62C610.95 821.34 608.43 823.66 604.67 823.66C600.99 823.66 598.55 821.38 598.55 816.94V804.58H594.95V817.42C594.95 823.7 598.91 826.82 603.95 826.82C606.87 826.82 609.55 825.54 610.95 823.26V826.5H614.59V804.58ZM619.376 815.5C619.376 822.46 623.816 826.86 630.056 826.86C635.496 826.86 639.056 823.82 640.176 819.46H636.256C635.456 822.22 633.296 823.78 630.056 823.78C626.056 823.78 623.096 820.94 623.096 815.5C623.096 810.14 626.056 807.3 630.056 807.3C633.296 807.3 635.496 808.98 636.256 811.62H640.176C639.056 807.02 635.496 804.22 630.056 804.22C623.816 804.22 619.376 808.62 619.376 815.5ZM645.833 820.5C645.833 824.9 648.033 826.5 651.913 826.5H655.193V823.42H652.513C650.273 823.42 649.473 822.66 649.473 820.5V807.58H655.193V804.58H649.473V799.06H645.833V804.58H642.993V807.58H645.833V820.5ZM679.043 804.58H675.403V816.62C675.403 821.34 672.883 823.66 669.123 823.66C665.443 823.66 663.003 821.38 663.003 816.94V804.58H659.403V817.42C659.403 823.7 663.363 826.82 668.403 826.82C671.323 826.82 674.003 825.54 675.403 823.26V826.5H679.043V804.58ZM688.829 814.58C688.829 809.5 691.469 807.94 694.949 807.94H695.909V804.18C692.429 804.18 690.069 805.7 688.829 808.14V804.58H685.189V826.5H688.829V814.58ZM709.431 807.3C713.191 807.3 716.391 809.66 716.351 813.94H702.511C702.911 809.66 705.871 807.3 709.431 807.3ZM719.671 819.74H715.751C714.951 822.1 712.871 823.78 709.591 823.78C705.871 823.78 702.751 821.34 702.471 816.9H719.991C720.071 816.14 720.111 815.5 720.111 814.7C720.111 808.7 715.951 804.22 709.591 804.22C703.191 804.22 698.751 808.58 698.751 815.5C698.751 822.46 703.351 826.86 709.591 826.86C715.031 826.86 718.551 823.74 719.671 819.74ZM739.22 814.58C739.22 809.5 741.86 807.94 745.34 807.94H746.3V804.18C742.82 804.18 740.46 805.7 739.22 808.14V804.58H735.58V826.5H739.22V814.58ZM759.822 807.3C763.582 807.3 766.782 809.66 766.742 813.94H752.902C753.302 809.66 756.262 807.3 759.822 807.3ZM770.062 819.74H766.142C765.342 822.1 763.262 823.78 759.982 823.78C756.262 823.78 753.142 821.34 752.862 816.9H770.382C770.462 816.14 770.502 815.5 770.502 814.7C770.502 808.7 766.342 804.22 759.982 804.22C753.582 804.22 749.142 808.58 749.142 815.5C749.142 822.46 753.742 826.86 759.982 826.86C765.422 826.86 768.942 823.74 770.062 819.74ZM773.947 815.46C773.947 822.26 778.467 826.86 784.267 826.86C788.347 826.86 791.267 824.7 792.507 822.46V836.9H796.187V804.58H792.507V808.58C791.267 806.3 788.387 804.22 784.387 804.22C778.467 804.22 773.947 808.62 773.947 815.46ZM792.507 815.5C792.507 820.66 789.067 823.66 785.067 823.66C781.067 823.66 777.667 820.62 777.667 815.46C777.667 810.3 781.067 807.38 785.067 807.38C789.067 807.38 792.507 810.42 792.507 815.5ZM821.778 804.58H818.138V816.62C818.138 821.34 815.618 823.66 811.858 823.66C808.178 823.66 805.738 821.38 805.738 816.94V804.58H802.138V817.42C802.138 823.7 806.098 826.82 811.138 826.82C814.058 826.82 816.738 825.54 818.138 823.26V826.5H821.778V804.58ZM827.924 826.5H831.564V804.58H827.924V826.5ZM829.804 801.02C831.124 801.02 832.204 799.94 832.204 798.54C832.204 797.14 831.124 796.06 829.804 796.06C828.404 796.06 827.324 797.14 827.324 798.54C827.324 799.94 828.404 801.02 829.804 801.02ZM841.408 814.58C841.408 809.5 844.048 807.94 847.528 807.94H848.488V804.18C845.008 804.18 842.648 805.7 841.408 808.14V804.58H837.768V826.5H841.408V814.58ZM862.009 807.3C865.769 807.3 868.969 809.66 868.929 813.94H855.089C855.489 809.66 858.449 807.3 862.009 807.3ZM872.249 819.74H868.329C867.529 822.1 865.449 823.78 862.169 823.78C858.449 823.78 855.329 821.34 855.049 816.9H872.569C872.649 816.14 872.689 815.5 872.689 814.7C872.689 808.7 868.529 804.22 862.169 804.22C855.769 804.22 851.329 808.58 851.329 815.5C851.329 822.46 855.929 826.86 862.169 826.86C867.609 826.86 871.129 823.74 872.249 819.74ZM893.254 820.54C893.094 812.7 880.374 815.54 880.374 810.34C880.374 808.58 881.974 807.3 884.654 807.3C887.574 807.3 889.254 808.9 889.414 811.1H893.054C892.814 806.82 889.614 804.22 884.774 804.22C879.894 804.22 876.734 806.98 876.734 810.34C876.734 818.5 889.694 815.66 889.694 820.54C889.694 822.34 888.094 823.78 885.214 823.78C882.134 823.78 880.254 822.18 880.054 820.06H876.294C876.534 824.06 880.134 826.86 885.254 826.86C890.094 826.86 893.254 824.14 893.254 820.54ZM925.097 826.5H928.697V813.58C928.697 807.3 924.817 804.18 919.737 804.18C916.777 804.18 914.137 805.42 912.697 807.7V804.58H909.057V826.5H912.697V814.38C912.697 809.66 915.257 807.34 918.977 807.34C922.657 807.34 925.097 809.62 925.097 814.1V826.5ZM943.963 807.3C947.723 807.3 950.923 809.66 950.883 813.94H937.043C937.442 809.66 940.403 807.3 943.963 807.3ZM954.203 819.74H950.283C949.483 822.1 947.403 823.78 944.123 823.78C940.403 823.78 937.283 821.34 937.003 816.9H954.523C954.603 816.14 954.643 815.5 954.643 814.7C954.643 808.7 950.483 804.22 944.123 804.22C937.723 804.22 933.283 808.58 933.283 815.5C933.283 822.46 937.883 826.86 944.123 826.86C949.563 826.86 953.083 823.74 954.203 819.74ZM963.727 826.5H967.487L972.767 809.1L978.047 826.5H981.807L988.647 804.58H985.047L980.087 823.02L974.767 804.58H971.047L965.607 822.98L960.567 804.58H956.847L963.727 826.5ZM1022.36 804.58H1018.72V816.62C1018.72 821.34 1016.2 823.66 1012.44 823.66C1008.76 823.66 1006.32 821.38 1006.32 816.94V804.58H1002.72V817.42C1002.72 823.7 1006.68 826.82 1011.72 826.82C1014.64 826.82 1017.32 825.54 1018.72 823.26V826.5H1022.36V804.58ZM1044.27 820.54C1044.11 812.7 1031.39 815.54 1031.39 810.34C1031.39 808.58 1032.99 807.3 1035.67 807.3C1038.59 807.3 1040.27 808.9 1040.43 811.1H1044.07C1043.83 806.82 1040.63 804.22 1035.79 804.22C1030.91 804.22 1027.75 806.98 1027.75 810.34C1027.75 818.5 1040.71 815.66 1040.71 820.54C1040.71 822.34 1039.11 823.78 1036.23 823.78C1033.15 823.78 1031.27 822.18 1031.07 820.06H1027.31C1027.55 824.06 1031.15 826.86 1036.27 826.86C1041.11 826.86 1044.27 824.14 1044.27 820.54ZM1058.73 807.3C1062.49 807.3 1065.69 809.66 1065.65 813.94H1051.81C1052.21 809.66 1055.17 807.3 1058.73 807.3ZM1068.97 819.74H1065.05C1064.25 822.1 1062.17 823.78 1058.89 823.78C1055.17 823.78 1052.05 821.34 1051.77 816.9H1069.29C1069.37 816.14 1069.41 815.5 1069.41 814.7C1069.41 808.7 1065.25 804.22 1058.89 804.22C1052.49 804.22 1048.05 808.58 1048.05 815.5C1048.05 822.46 1052.65 826.86 1058.89 826.86C1064.33 826.86 1067.85 823.74 1068.97 819.74ZM1077.85 814.58C1077.85 809.5 1080.49 807.94 1083.97 807.94H1084.93V804.18C1081.45 804.18 1079.09 805.7 1077.85 808.14V804.58H1074.21V826.5H1077.85V814.58ZM1099.8 826.5H1103.44V804.58H1099.8V826.5ZM1101.68 801.02C1103 801.02 1104.08 799.94 1104.08 798.54C1104.08 797.14 1103 796.06 1101.68 796.06C1100.28 796.06 1099.2 797.14 1099.2 798.54C1099.2 799.94 1100.28 801.02 1101.68 801.02ZM1125.68 826.5H1129.28V813.58C1129.28 807.3 1125.4 804.18 1120.32 804.18C1117.36 804.18 1114.72 805.42 1113.28 807.7V804.58H1109.64V826.5H1113.28V814.38C1113.28 809.66 1115.84 807.34 1119.56 807.34C1123.24 807.34 1125.68 809.62 1125.68 814.1V826.5ZM1136.03 820.5C1136.03 824.9 1138.23 826.5 1142.11 826.5H1145.39V823.42H1142.71C1140.47 823.42 1139.67 822.66 1139.67 820.5V807.58H1145.39V804.58H1139.67V799.06H1136.03V804.58H1133.19V807.58H1136.03V820.5ZM1159.12 807.3C1162.88 807.3 1166.08 809.66 1166.04 813.94H1152.2C1152.6 809.66 1155.56 807.3 1159.12 807.3ZM1169.36 819.74H1165.44C1164.64 822.1 1162.56 823.78 1159.28 823.78C1155.56 823.78 1152.44 821.34 1152.16 816.9H1169.68C1169.76 816.14 1169.8 815.5 1169.8 814.7C1169.8 808.7 1165.64 804.22 1159.28 804.22C1152.88 804.22 1148.44 808.58 1148.44 815.5C1148.44 822.46 1153.04 826.86 1159.28 826.86C1164.72 826.86 1168.24 823.74 1169.36 819.74ZM1178.24 814.58C1178.24 809.5 1180.88 807.94 1184.36 807.94H1185.32V804.18C1181.84 804.18 1179.48 805.7 1178.24 808.14V804.58H1174.6V826.5H1178.24V814.58ZM1190.21 826.5H1193.85V807.58H1198.45V804.58H1193.85V803.02C1193.85 800.18 1194.93 798.98 1198.21 798.98V795.94C1192.61 795.94 1190.21 798.14 1190.21 803.02V804.58H1187.37V807.58H1190.21V826.5ZM1201.33 815.46C1201.33 822.26 1205.85 826.86 1211.69 826.86C1215.73 826.86 1218.57 824.78 1219.89 822.42V826.5H1223.57V804.58H1219.89V808.58C1218.61 806.3 1215.81 804.22 1211.73 804.22C1205.85 804.22 1201.33 808.62 1201.33 815.46ZM1219.89 815.5C1219.89 820.66 1216.45 823.66 1212.45 823.66C1208.45 823.66 1205.05 820.62 1205.05 815.46C1205.05 810.3 1208.45 807.38 1212.45 807.38C1216.45 807.38 1219.89 810.42 1219.89 815.5ZM1228.36 815.5C1228.36 822.46 1232.8 826.86 1239.04 826.86C1244.48 826.86 1248.04 823.82 1249.16 819.46H1245.24C1244.44 822.22 1242.28 823.78 1239.04 823.78C1235.04 823.78 1232.08 820.94 1232.08 815.5C1232.08 810.14 1235.04 807.3 1239.04 807.3C1242.28 807.3 1244.48 808.98 1245.24 811.62H1249.16C1248.04 807.02 1244.48 804.22 1239.04 804.22C1232.8 804.22 1228.36 808.62 1228.36 815.5ZM1263.34 807.3C1267.1 807.3 1270.3 809.66 1270.26 813.94H1256.42C1256.82 809.66 1259.78 807.3 1263.34 807.3ZM1273.58 819.74H1269.66C1268.86 822.1 1266.78 823.78 1263.5 823.78C1259.78 823.78 1256.66 821.34 1256.38 816.9H1273.9C1273.98 816.14 1274.02 815.5 1274.02 814.7C1274.02 808.7 1269.86 804.22 1263.5 804.22C1257.1 804.22 1252.66 808.58 1252.66 815.5C1252.66 822.46 1257.26 826.86 1263.5 826.86C1268.94 826.86 1272.46 823.74 1273.58 819.74ZM1294.58 820.54C1294.42 812.7 1281.7 815.54 1281.7 810.34C1281.7 808.58 1283.3 807.3 1285.98 807.3C1288.9 807.3 1290.58 808.9 1290.74 811.1H1294.38C1294.14 806.82 1290.94 804.22 1286.1 804.22C1281.22 804.22 1278.06 806.98 1278.06 810.34C1278.06 818.5 1291.02 815.66 1291.02 820.54C1291.02 822.34 1289.42 823.78 1286.54 823.78C1283.46 823.78 1281.58 822.18 1281.38 820.06H1277.62C1277.86 824.06 1281.46 826.86 1286.58 826.86C1291.42 826.86 1294.58 824.14 1294.58 820.54ZM1.72 875.46C1.72 882.26 6.24 886.86 12.08 886.86C16.12 886.86 18.96 884.78 20.28 882.42V886.5H23.96V864.58H20.28V868.58C19 866.3 16.2 864.22 12.12 864.22C6.24 864.22 1.72 868.62 1.72 875.46ZM20.28 875.5C20.28 880.66 16.84 883.66 12.84 883.66C8.84 883.66 5.44 880.62 5.44 875.46C5.44 870.3 8.84 867.38 12.84 867.38C16.84 867.38 20.28 870.42 20.28 875.5ZM46.1513 886.5H49.7513V873.58C49.7513 867.3 45.8713 864.18 40.7913 864.18C37.8313 864.18 35.1913 865.42 33.7513 867.7V864.58H30.1113V886.5H33.7513V874.38C33.7513 869.66 36.3113 867.34 40.0313 867.34C43.7113 867.34 46.1513 869.62 46.1513 874.1V886.5ZM54.3372 875.46C54.3372 882.26 58.8572 886.86 64.7372 886.86C68.7372 886.86 71.5772 884.82 72.8972 882.38V886.5H76.5772V856.9H72.8972V868.5C71.3772 865.98 68.2172 864.22 64.7772 864.22C58.8572 864.22 54.3372 868.62 54.3372 875.46ZM72.8972 875.5C72.8972 880.66 69.4572 883.66 65.4572 883.66C61.4572 883.66 58.0572 880.62 58.0572 875.46C58.0572 870.3 61.4572 867.38 65.4572 867.38C69.4572 867.38 72.8972 870.42 72.8972 875.5ZM95.3525 861.02C96.7125 861.02 97.7925 859.94 97.7925 858.54C97.7925 857.14 96.7125 856.06 95.3525 856.06C93.9925 856.06 92.9125 857.14 92.9125 858.54C92.9125 859.94 93.9925 861.02 95.3525 861.02ZM93.5125 864.58V891.18C93.5125 893.1 92.7525 893.82 90.7525 893.82H89.2325V896.9H91.3525C95.0725 896.9 97.1525 895.22 97.1525 891.26V864.58H93.5125ZM124.114 875.5C124.114 868.58 119.274 864.22 113.034 864.22C106.834 864.22 101.954 868.58 101.954 875.5C101.954 882.46 106.674 886.86 112.874 886.86C119.114 886.86 124.114 882.46 124.114 875.5ZM105.674 875.5C105.674 869.98 109.154 867.38 112.994 867.38C116.754 867.38 120.394 869.98 120.394 875.5C120.394 881.06 116.674 883.66 112.874 883.66C109.074 883.66 105.674 881.06 105.674 875.5ZM148.34 864.58H144.7V876.62C144.7 881.34 142.18 883.66 138.42 883.66C134.74 883.66 132.3 881.38 132.3 876.94V864.58H128.7V877.42C128.7 883.7 132.66 886.82 137.7 886.82C140.62 886.82 143.3 885.54 144.7 883.26V886.5H148.34V864.58ZM158.126 874.58C158.126 869.5 160.766 867.94 164.246 867.94H165.206V864.18C161.726 864.18 159.366 865.7 158.126 868.14V864.58H154.486V886.5H158.126V874.58ZM185.448 886.5H189.048V873.58C189.048 867.3 185.168 864.18 180.088 864.18C177.128 864.18 174.488 865.42 173.048 867.7V864.58H169.408V886.5H173.048V874.38C173.048 869.66 175.608 867.34 179.328 867.34C183.008 867.34 185.448 869.62 185.448 874.1V886.5ZM204.314 867.3C208.074 867.3 211.274 869.66 211.234 873.94H197.394C197.794 869.66 200.754 867.3 204.314 867.3ZM214.554 879.74H210.634C209.834 882.1 207.754 883.78 204.474 883.78C200.754 883.78 197.634 881.34 197.354 876.9H214.874C214.954 876.14 214.994 875.5 214.994 874.7C214.994 868.7 210.834 864.22 204.474 864.22C198.074 864.22 193.634 868.58 193.634 875.5C193.634 882.46 198.234 886.86 204.474 886.86C209.914 886.86 213.434 883.74 214.554 879.74ZM228.119 882.34L221.239 864.58H217.199L226.039 886.26L221.719 896.82H225.479L238.679 864.58H234.919L228.119 882.34ZM258.098 880.54C257.938 872.7 245.218 875.54 245.218 870.34C245.218 868.58 246.818 867.3 249.498 867.3C252.418 867.3 254.098 868.9 254.258 871.1H257.898C257.658 866.82 254.458 864.22 249.618 864.22C244.738 864.22 241.578 866.98 241.578 870.34C241.578 878.5 254.538 875.66 254.538 880.54C254.538 882.34 252.938 883.78 250.058 883.78C246.978 883.78 245.098 882.18 244.898 880.06H241.138C241.378 884.06 244.978 886.86 250.098 886.86C254.938 886.86 258.098 884.14 258.098 880.54ZM266.796 884.26C266.796 882.86 265.716 881.78 264.396 881.78C262.996 881.78 261.916 882.86 261.916 884.26C261.916 885.66 262.996 886.74 264.396 886.74C265.716 886.74 266.796 885.66 266.796 884.26Z" fill="#F5F5F5"/>
<path d="M34.32 978.96C34.32 964.86 13.5 968.16 13.5 960.84C13.5 958.2 15.36 956.94 17.82 957C20.58 957.06 22.5 958.68 22.68 961.38H33.78C33.36 953.34 27.18 948.78 18 948.78C9.18 948.78 2.64 953.22 2.64 961.2C2.52 976.14 23.58 971.94 23.58 979.74C23.58 982.2 21.66 983.7 18.66 983.7C15.78 983.7 13.74 982.14 13.44 978.9H2.52C2.82 987.42 9.9 991.92 18.96 991.92C28.8 991.92 34.32 986.04 34.32 978.96ZM82.0941 970.32C82.0941 957.66 72.5541 948.78 60.5541 948.78C48.6141 948.78 38.8941 957.66 38.8941 970.32C38.8941 982.98 48.6141 991.92 60.5541 991.92C72.4941 991.92 82.0941 982.98 82.0941 970.32ZM49.3941 970.32C49.3941 962.82 53.7141 958.08 60.5541 958.08C67.2741 958.08 71.6541 962.82 71.6541 970.32C71.6541 977.7 67.2741 982.56 60.5541 982.56C53.7141 982.56 49.3941 977.7 49.3941 970.32ZM87.802 949.38V991.5H111.502V983.58H98.062V949.38H87.802ZM116.216 974.52C116.216 986.16 123.836 991.92 133.616 991.92C143.336 991.92 151.496 986.16 151.496 974.52V949.38H141.236V974.58C141.236 979.56 138.656 982.44 133.796 982.44C128.936 982.44 126.476 979.56 126.476 974.58V949.38H116.216V974.52ZM156.42 957.6H167.58V991.5H177.84V957.6H189V949.38H156.42V957.6ZM194.15 991.5H204.41V949.38H194.15V991.5ZM253.305 970.32C253.305 957.66 243.765 948.78 231.765 948.78C219.825 948.78 210.105 957.66 210.105 970.32C210.105 982.98 219.825 991.92 231.765 991.92C243.705 991.92 253.305 982.98 253.305 970.32ZM220.605 970.32C220.605 962.82 224.925 958.08 231.765 958.08C238.485 958.08 242.865 962.82 242.865 970.32C242.865 977.7 238.485 982.56 231.765 982.56C224.925 982.56 220.605 977.7 220.605 970.32ZM286.433 949.38V975.48L269.273 949.38H259.013V991.5H269.273V965.52L286.433 991.5H296.693V949.38H286.433ZM314.99 986.46C314.99 983.28 312.53 980.82 308.93 980.82C305.27 980.82 302.81 983.28 302.81 986.46C302.81 989.52 305.27 991.98 308.93 991.98C312.53 991.98 314.99 989.52 314.99 986.46ZM314.99 962.04C314.99 958.86 312.53 956.4 308.93 956.4C305.27 956.4 302.81 958.86 302.81 962.04C302.81 965.1 305.27 967.56 308.93 967.56C312.53 967.56 314.99 965.1 314.99 962.04Z" fill="#F5F5F5"/>
<path d="M11.76 1054.62H3.08V1082.5H11.76C20.92 1082.5 26.56 1077.26 26.56 1068.62C26.56 1059.98 20.92 1054.62 11.76 1054.62ZM6.72 1079.5V1057.58H11.76C19.04 1057.58 22.84 1061.82 22.84 1068.62C22.84 1075.42 19.04 1079.5 11.76 1079.5H6.72ZM40.6813 1063.3C44.4413 1063.3 47.6413 1065.66 47.6013 1069.94H33.7613C34.1612 1065.66 37.1213 1063.3 40.6813 1063.3ZM50.9213 1075.74H47.0013C46.2013 1078.1 44.1213 1079.78 40.8413 1079.78C37.1213 1079.78 34.0013 1077.34 33.7213 1072.9H51.2413C51.3213 1072.14 51.3613 1071.5 51.3613 1070.7C51.3613 1064.7 47.2013 1060.22 40.8413 1060.22C34.4413 1060.22 30.0013 1064.58 30.0013 1071.5C30.0013 1078.46 34.6013 1082.86 40.8413 1082.86C46.2813 1082.86 49.8013 1079.74 50.9213 1075.74ZM71.9259 1076.54C71.7659 1068.7 59.0459 1071.54 59.0459 1066.34C59.0459 1064.58 60.6459 1063.3 63.3259 1063.3C66.2459 1063.3 67.9259 1064.9 68.0859 1067.1H71.7259C71.4859 1062.82 68.2859 1060.22 63.4459 1060.22C58.5659 1060.22 55.4059 1062.98 55.4059 1066.34C55.4059 1074.5 68.3659 1071.66 68.3659 1076.54C68.3659 1078.34 66.7659 1079.78 63.8859 1079.78C60.8059 1079.78 58.9259 1078.18 58.7259 1076.06H54.9659C55.2059 1080.06 58.8059 1082.86 63.9259 1082.86C68.7659 1082.86 71.9259 1080.14 71.9259 1076.54ZM77.0644 1082.5H80.7044V1060.58H77.0644V1082.5ZM78.9444 1057.02C80.2644 1057.02 81.3444 1055.94 81.3444 1054.54C81.3444 1053.14 80.2644 1052.06 78.9444 1052.06C77.5444 1052.06 76.4644 1053.14 76.4644 1054.54C76.4644 1055.94 77.5444 1057.02 78.9444 1057.02ZM85.5481 1071.46C85.5481 1078.26 90.0681 1082.86 95.9481 1082.86C99.9481 1082.86 102.788 1080.74 104.108 1078.38V1082.98C104.108 1087.66 101.188 1090.14 97.3081 1090.14C93.7081 1090.14 91.1081 1088.34 90.3081 1085.7H86.7081C87.4281 1090.38 91.5481 1093.3 97.3081 1093.3C103.748 1093.3 107.788 1089.02 107.788 1082.98V1060.58H104.108V1064.58C102.828 1062.22 99.9481 1060.22 95.9481 1060.22C90.0681 1060.22 85.5481 1064.62 85.5481 1071.46ZM104.108 1071.5C104.108 1076.66 100.668 1079.66 96.6681 1079.66C92.6681 1079.66 89.2681 1076.62 89.2681 1071.46C89.2681 1066.3 92.6681 1063.38 96.6681 1063.38C100.668 1063.38 104.108 1066.42 104.108 1071.5ZM129.979 1082.5H133.579V1069.58C133.579 1063.3 129.699 1060.18 124.619 1060.18C121.659 1060.18 119.019 1061.42 117.579 1063.7V1060.58H113.939V1082.5H117.579V1070.38C117.579 1065.66 120.139 1063.34 123.859 1063.34C127.539 1063.34 129.979 1065.62 129.979 1070.1V1082.5ZM148.829 1071.46C148.829 1078.26 153.349 1082.86 159.189 1082.86C163.229 1082.86 166.069 1080.78 167.389 1078.42V1082.5H171.069V1060.58H167.389V1064.58C166.109 1062.3 163.309 1060.22 159.229 1060.22C153.349 1060.22 148.829 1064.62 148.829 1071.46ZM167.389 1071.5C167.389 1076.66 163.949 1079.66 159.949 1079.66C155.949 1079.66 152.549 1076.62 152.549 1071.46C152.549 1066.3 155.949 1063.38 159.949 1063.38C163.949 1063.38 167.389 1066.42 167.389 1071.5ZM187.885 1082.5H191.525V1070.38C191.525 1065.66 194.085 1063.34 197.805 1063.34C201.485 1063.34 203.925 1065.62 203.925 1070.1V1082.5H207.525V1069.58C207.525 1063.3 203.645 1060.18 198.765 1060.18C195.685 1060.18 192.965 1061.42 191.525 1063.74V1052.9H187.885V1082.5ZM213.471 1082.5H217.111V1060.58H213.471V1082.5ZM215.351 1057.02C216.671 1057.02 217.751 1055.94 217.751 1054.54C217.751 1053.14 216.671 1052.06 215.351 1052.06C213.951 1052.06 212.871 1053.14 212.871 1054.54C212.871 1055.94 213.951 1057.02 215.351 1057.02ZM221.954 1071.46C221.954 1078.26 226.474 1082.86 232.354 1082.86C236.354 1082.86 239.194 1080.74 240.514 1078.38V1082.98C240.514 1087.66 237.594 1090.14 233.714 1090.14C230.114 1090.14 227.514 1088.34 226.714 1085.7H223.114C223.834 1090.38 227.954 1093.3 233.714 1093.3C240.154 1093.3 244.194 1089.02 244.194 1082.98V1060.58H240.514V1064.58C239.234 1062.22 236.354 1060.22 232.354 1060.22C226.474 1060.22 221.954 1064.62 221.954 1071.46ZM240.514 1071.5C240.514 1076.66 237.074 1079.66 233.074 1079.66C229.074 1079.66 225.674 1076.62 225.674 1071.46C225.674 1066.3 229.074 1063.38 233.074 1063.38C237.074 1063.38 240.514 1066.42 240.514 1071.5ZM250.346 1082.5H253.986V1070.38C253.986 1065.66 256.546 1063.34 260.266 1063.34C263.946 1063.34 266.386 1065.62 266.386 1070.1V1082.5H269.986V1069.58C269.986 1063.3 266.106 1060.18 261.226 1060.18C258.146 1060.18 255.426 1061.42 253.986 1063.74V1052.9H250.346V1082.5ZM275.172 1069.38H291.132V1066.3H275.172V1069.38ZM297.963 1082.5H301.603V1060.58H297.963V1082.5ZM299.843 1057.02C301.163 1057.02 302.243 1055.94 302.243 1054.54C302.243 1053.14 301.163 1052.06 299.843 1052.06C298.443 1052.06 297.363 1053.14 297.363 1054.54C297.363 1055.94 298.443 1057.02 299.843 1057.02ZM339.447 1082.5H343.047V1069.58C343.047 1063.3 339.167 1060.18 334.167 1060.18C330.807 1060.18 327.687 1061.9 326.407 1065.06C324.967 1061.78 321.967 1060.18 318.367 1060.18C315.487 1060.18 312.887 1061.42 311.447 1063.74V1060.58H307.807V1082.5H311.447V1070.42C311.447 1065.7 313.967 1063.34 317.647 1063.34C321.247 1063.34 323.647 1065.62 323.647 1070.1V1082.5H327.247V1070.42C327.247 1065.7 329.767 1063.34 333.447 1063.34C337.047 1063.34 339.447 1065.62 339.447 1070.1V1082.5ZM352.658 1064.62V1060.58H349.018V1092.9H352.658V1078.46C354.018 1080.7 356.858 1082.86 360.858 1082.86C366.738 1082.86 371.258 1078.26 371.258 1071.46C371.258 1064.62 366.738 1060.22 360.858 1060.22C356.858 1060.22 353.978 1062.3 352.658 1064.62ZM367.538 1071.46C367.538 1076.62 364.138 1079.66 360.098 1079.66C356.138 1079.66 352.658 1076.66 352.658 1071.5C352.658 1066.42 356.138 1063.38 360.098 1063.38C364.138 1063.38 367.538 1066.3 367.538 1071.46ZM374.689 1071.46C374.689 1078.26 379.209 1082.86 385.049 1082.86C389.089 1082.86 391.929 1080.78 393.249 1078.42V1082.5H396.929V1060.58H393.249V1064.58C391.969 1062.3 389.169 1060.22 385.089 1060.22C379.209 1060.22 374.689 1064.62 374.689 1071.46ZM393.249 1071.5C393.249 1076.66 389.809 1079.66 385.809 1079.66C381.809 1079.66 378.409 1076.62 378.409 1071.46C378.409 1066.3 381.809 1063.38 385.809 1063.38C389.809 1063.38 393.249 1066.42 393.249 1071.5ZM401.72 1071.5C401.72 1078.46 406.16 1082.86 412.4 1082.86C417.84 1082.86 421.4 1079.82 422.52 1075.46H418.6C417.8 1078.22 415.64 1079.78 412.4 1079.78C408.4 1079.78 405.44 1076.94 405.44 1071.5C405.44 1066.14 408.4 1063.3 412.4 1063.3C415.64 1063.3 417.84 1064.98 418.6 1067.62H422.52C421.4 1063.02 417.84 1060.22 412.4 1060.22C406.16 1060.22 401.72 1064.62 401.72 1071.5ZM428.177 1076.5C428.177 1080.9 430.377 1082.5 434.257 1082.5H437.537V1079.42H434.857C432.617 1079.42 431.817 1078.66 431.817 1076.5V1063.58H437.537V1060.58H431.817V1055.06H428.177V1060.58H425.337V1063.58H428.177V1076.5ZM452.611 1082.5H456.251V1052.9H452.611V1082.5ZM461.095 1071.46C461.095 1078.26 465.615 1082.86 471.455 1082.86C475.495 1082.86 478.335 1080.78 479.655 1078.42V1082.5H483.335V1060.58H479.655V1064.58C478.375 1062.3 475.575 1060.22 471.495 1060.22C465.615 1060.22 461.095 1064.62 461.095 1071.46ZM479.655 1071.5C479.655 1076.66 476.215 1079.66 472.215 1079.66C468.215 1079.66 464.815 1076.62 464.815 1071.46C464.815 1066.3 468.215 1063.38 472.215 1063.38C476.215 1063.38 479.655 1066.42 479.655 1071.5ZM505.526 1082.5H509.126V1069.58C509.126 1063.3 505.246 1060.18 500.166 1060.18C497.206 1060.18 494.566 1061.42 493.126 1063.7V1060.58H489.486V1082.5H493.126V1070.38C493.126 1065.66 495.686 1063.34 499.406 1063.34C503.086 1063.34 505.526 1065.62 505.526 1070.1V1082.5ZM513.712 1071.46C513.712 1078.26 518.232 1082.86 524.112 1082.86C528.112 1082.86 530.952 1080.82 532.272 1078.38V1082.5H535.952V1052.9H532.272V1064.5C530.752 1061.98 527.592 1060.22 524.152 1060.22C518.232 1060.22 513.712 1064.62 513.712 1071.46ZM532.272 1071.5C532.272 1076.66 528.832 1079.66 524.832 1079.66C520.832 1079.66 517.432 1076.62 517.432 1071.46C517.432 1066.3 520.832 1063.38 524.832 1063.38C528.832 1063.38 532.272 1066.42 532.272 1071.5ZM542.103 1082.5H545.743V1060.58H542.103V1082.5ZM543.983 1057.02C545.303 1057.02 546.383 1055.94 546.383 1054.54C546.383 1053.14 545.303 1052.06 543.983 1052.06C542.583 1052.06 541.503 1053.14 541.503 1054.54C541.503 1055.94 542.583 1057.02 543.983 1057.02ZM567.987 1082.5H571.587V1069.58C571.587 1063.3 567.707 1060.18 562.627 1060.18C559.667 1060.18 557.027 1061.42 555.587 1063.7V1060.58H551.947V1082.5H555.587V1070.38C555.587 1065.66 558.147 1063.34 561.867 1063.34C565.547 1063.34 567.987 1065.62 567.987 1070.1V1082.5ZM576.173 1071.46C576.173 1078.26 580.693 1082.86 586.573 1082.86C590.573 1082.86 593.413 1080.74 594.733 1078.38V1082.98C594.733 1087.66 591.813 1090.14 587.933 1090.14C584.333 1090.14 581.733 1088.34 580.933 1085.7H577.333C578.053 1090.38 582.173 1093.3 587.933 1093.3C594.373 1093.3 598.413 1089.02 598.413 1082.98V1060.58H594.733V1064.58C593.453 1062.22 590.573 1060.22 586.573 1060.22C580.693 1060.22 576.173 1064.62 576.173 1071.46ZM594.733 1071.5C594.733 1076.66 591.293 1079.66 587.293 1079.66C583.293 1079.66 579.893 1076.62 579.893 1071.46C579.893 1066.3 583.293 1063.38 587.293 1063.38C591.293 1063.38 594.733 1066.42 594.733 1071.5ZM618.868 1064.62V1060.58H615.228V1092.9H618.868V1078.46C620.228 1080.7 623.068 1082.86 627.068 1082.86C632.948 1082.86 637.468 1078.26 637.468 1071.46C637.468 1064.62 632.948 1060.22 627.068 1060.22C623.068 1060.22 620.188 1062.3 618.868 1064.62ZM633.748 1071.46C633.748 1076.62 630.348 1079.66 626.308 1079.66C622.348 1079.66 618.868 1076.66 618.868 1071.5C618.868 1066.42 622.348 1063.38 626.308 1063.38C630.348 1063.38 633.748 1066.3 633.748 1071.46ZM640.9 1071.46C640.9 1078.26 645.42 1082.86 651.26 1082.86C655.3 1082.86 658.14 1080.78 659.46 1078.42V1082.5H663.14V1060.58H659.46V1064.58C658.18 1062.3 655.38 1060.22 651.3 1060.22C645.42 1060.22 640.9 1064.62 640.9 1071.46ZM659.46 1071.5C659.46 1076.66 656.02 1079.66 652.02 1079.66C648.02 1079.66 644.62 1076.62 644.62 1071.46C644.62 1066.3 648.02 1063.38 652.02 1063.38C656.02 1063.38 659.46 1066.42 659.46 1071.5ZM667.931 1071.46C667.931 1078.26 672.451 1082.86 678.331 1082.86C682.331 1082.86 685.171 1080.74 686.491 1078.38V1082.98C686.491 1087.66 683.571 1090.14 679.691 1090.14C676.091 1090.14 673.491 1088.34 672.691 1085.7H669.091C669.811 1090.38 673.931 1093.3 679.691 1093.3C686.131 1093.3 690.171 1089.02 690.171 1082.98V1060.58H686.491V1064.58C685.211 1062.22 682.331 1060.22 678.331 1060.22C672.451 1060.22 667.931 1064.62 667.931 1071.46ZM686.491 1071.5C686.491 1076.66 683.051 1079.66 679.051 1079.66C675.051 1079.66 671.651 1076.62 671.651 1071.46C671.651 1066.3 675.051 1063.38 679.051 1063.38C683.051 1063.38 686.491 1066.42 686.491 1071.5ZM705.642 1063.3C709.402 1063.3 712.602 1065.66 712.562 1069.94H698.722C699.122 1065.66 702.082 1063.3 705.642 1063.3ZM715.882 1075.74H711.962C711.162 1078.1 709.082 1079.78 705.802 1079.78C702.082 1079.78 698.962 1077.34 698.682 1072.9H716.202C716.282 1072.14 716.322 1071.5 716.322 1070.7C716.322 1064.7 712.162 1060.22 705.802 1060.22C699.402 1060.22 694.962 1064.58 694.962 1071.5C694.962 1078.46 699.562 1082.86 705.802 1082.86C711.242 1082.86 714.762 1079.74 715.882 1075.74ZM732.591 1076.5C732.591 1080.9 734.791 1082.5 738.671 1082.5H741.951V1079.42H739.271C737.031 1079.42 736.231 1078.66 736.231 1076.5V1063.58H741.951V1060.58H736.231V1055.06H732.591V1060.58H729.751V1063.58H732.591V1076.5ZM746.361 1082.5H750.001V1070.38C750.001 1065.66 752.561 1063.34 756.281 1063.34C759.961 1063.34 762.401 1065.62 762.401 1070.1V1082.5H766.001V1069.58C766.001 1063.3 762.121 1060.18 757.241 1060.18C754.161 1060.18 751.441 1061.42 750.001 1063.74V1052.9H746.361V1082.5ZM770.587 1071.46C770.587 1078.26 775.107 1082.86 780.947 1082.86C784.987 1082.86 787.827 1080.78 789.147 1078.42V1082.5H792.827V1060.58H789.147V1064.58C787.867 1062.3 785.067 1060.22 780.987 1060.22C775.107 1060.22 770.587 1064.62 770.587 1071.46ZM789.147 1071.5C789.147 1076.66 785.707 1079.66 781.707 1079.66C777.707 1079.66 774.307 1076.62 774.307 1071.46C774.307 1066.3 777.707 1063.38 781.707 1063.38C785.707 1063.38 789.147 1066.42 789.147 1071.5ZM799.778 1076.5C799.778 1080.9 801.978 1082.5 805.858 1082.5H809.138V1079.42H806.458C804.218 1079.42 803.418 1078.66 803.418 1076.5V1063.58H809.138V1060.58H803.418V1055.06H799.778V1060.58H796.938V1063.58H799.778V1076.5ZM824.893 1082.5H828.533V1063.58H833.133V1060.58H828.533V1059.02C828.533 1056.18 829.613 1054.98 832.893 1054.98V1051.94C827.293 1051.94 824.893 1054.14 824.893 1059.02V1060.58H822.053V1063.58H824.893V1082.5ZM858.177 1071.5C858.177 1064.58 853.337 1060.22 847.097 1060.22C840.897 1060.22 836.017 1064.58 836.017 1071.5C836.017 1078.46 840.737 1082.86 846.937 1082.86C853.177 1082.86 858.177 1078.46 858.177 1071.5ZM839.737 1071.5C839.737 1065.98 843.217 1063.38 847.057 1063.38C850.817 1063.38 854.457 1065.98 854.457 1071.5C854.457 1077.06 850.737 1079.66 846.937 1079.66C843.137 1079.66 839.737 1077.06 839.737 1071.5ZM866.603 1070.58C866.603 1065.5 869.243 1063.94 872.723 1063.94H873.683V1060.18C870.203 1060.18 867.843 1061.7 866.603 1064.14V1060.58H862.963V1082.5H866.603V1070.58ZM887.205 1063.3C890.965 1063.3 894.165 1065.66 894.125 1069.94H880.285C880.685 1065.66 883.645 1063.3 887.205 1063.3ZM897.445 1075.74H893.525C892.725 1078.1 890.645 1079.78 887.365 1079.78C883.645 1079.78 880.525 1077.34 880.245 1072.9H897.765C897.845 1072.14 897.885 1071.5 897.885 1070.7C897.885 1064.7 893.725 1060.22 887.365 1060.22C880.965 1060.22 876.525 1064.58 876.525 1071.5C876.525 1078.46 881.125 1082.86 887.365 1082.86C892.805 1082.86 896.325 1079.74 897.445 1075.74ZM918.449 1076.54C918.289 1068.7 905.569 1071.54 905.569 1066.34C905.569 1064.58 907.169 1063.3 909.849 1063.3C912.769 1063.3 914.449 1064.9 914.609 1067.1H918.249C918.009 1062.82 914.809 1060.22 909.969 1060.22C905.089 1060.22 901.929 1062.98 901.929 1066.34C901.929 1074.5 914.889 1071.66 914.889 1076.54C914.889 1078.34 913.289 1079.78 910.409 1079.78C907.329 1079.78 905.449 1078.18 905.249 1076.06H901.489C901.729 1080.06 905.329 1082.86 910.449 1082.86C915.289 1082.86 918.449 1080.14 918.449 1076.54ZM923.588 1082.5H927.228V1070.38C927.228 1065.66 929.788 1063.34 933.508 1063.34C937.188 1063.34 939.628 1065.62 939.628 1070.1V1082.5H943.228V1069.58C943.228 1063.3 939.348 1060.18 934.468 1060.18C931.388 1060.18 928.668 1061.42 927.228 1063.74V1052.9H923.588V1082.5ZM947.814 1071.46C947.814 1078.26 952.334 1082.86 958.174 1082.86C962.214 1082.86 965.054 1080.78 966.374 1078.42V1082.5H970.054V1060.58H966.374V1064.58C965.094 1062.3 962.294 1060.22 958.214 1060.22C952.334 1060.22 947.814 1064.62 947.814 1071.46ZM966.374 1071.5C966.374 1076.66 962.934 1079.66 958.934 1079.66C954.934 1079.66 951.534 1076.62 951.534 1071.46C951.534 1066.3 954.934 1063.38 958.934 1063.38C962.934 1063.38 966.374 1066.42 966.374 1071.5ZM974.845 1071.46C974.845 1078.26 979.365 1082.86 985.245 1082.86C989.245 1082.86 992.085 1080.82 993.405 1078.38V1082.5H997.085V1052.9H993.405V1064.5C991.885 1061.98 988.725 1060.22 985.285 1060.22C979.365 1060.22 974.845 1064.62 974.845 1071.46ZM993.405 1071.5C993.405 1076.66 989.965 1079.66 985.965 1079.66C981.965 1079.66 978.565 1076.62 978.565 1071.46C978.565 1066.3 981.965 1063.38 985.965 1063.38C989.965 1063.38 993.405 1066.42 993.405 1071.5ZM1024.04 1071.5C1024.04 1064.58 1019.2 1060.22 1012.96 1060.22C1006.76 1060.22 1001.88 1064.58 1001.88 1071.5C1001.88 1078.46 1006.6 1082.86 1012.8 1082.86C1019.04 1082.86 1024.04 1078.46 1024.04 1071.5ZM1005.6 1071.5C1005.6 1065.98 1009.08 1063.38 1012.92 1063.38C1016.68 1063.38 1020.32 1065.98 1020.32 1071.5C1020.32 1077.06 1016.6 1079.66 1012.8 1079.66C1009 1079.66 1005.6 1077.06 1005.6 1071.5ZM1033.1 1082.5H1036.86L1042.14 1065.1L1047.42 1082.5H1051.18L1058.02 1060.58H1054.42L1049.46 1079.02L1044.14 1060.58H1040.42L1034.98 1078.98L1029.94 1060.58H1026.22L1033.1 1082.5ZM1077.39 1076.54C1077.23 1068.7 1064.51 1071.54 1064.51 1066.34C1064.51 1064.58 1066.11 1063.3 1068.79 1063.3C1071.71 1063.3 1073.39 1064.9 1073.55 1067.1H1077.19C1076.95 1062.82 1073.75 1060.22 1068.91 1060.22C1064.03 1060.22 1060.87 1062.98 1060.87 1066.34C1060.87 1074.5 1073.83 1071.66 1073.83 1076.54C1073.83 1078.34 1072.23 1079.78 1069.35 1079.78C1066.27 1079.78 1064.39 1078.18 1064.19 1076.06H1060.43C1060.67 1080.06 1064.27 1082.86 1069.39 1082.86C1074.23 1082.86 1077.39 1080.14 1077.39 1076.54ZM1101.88 1054.62H1093.2V1082.5H1101.88C1111.04 1082.5 1116.68 1077.26 1116.68 1068.62C1116.68 1059.98 1111.04 1054.62 1101.88 1054.62ZM1096.84 1079.5V1057.58H1101.88C1109.16 1057.58 1112.96 1061.82 1112.96 1068.62C1112.96 1075.42 1109.16 1079.5 1101.88 1079.5H1096.84ZM1125.12 1070.58C1125.12 1065.5 1127.76 1063.94 1131.24 1063.94H1132.2V1060.18C1128.72 1060.18 1126.36 1061.7 1125.12 1064.14V1060.58H1121.48V1082.5H1125.12V1070.58ZM1157.2 1071.5C1157.2 1064.58 1152.36 1060.22 1146.12 1060.22C1139.92 1060.22 1135.04 1064.58 1135.04 1071.5C1135.04 1078.46 1139.76 1082.86 1145.96 1082.86C1152.2 1082.86 1157.2 1078.46 1157.2 1071.5ZM1138.76 1071.5C1138.76 1065.98 1142.24 1063.38 1146.08 1063.38C1149.84 1063.38 1153.48 1065.98 1153.48 1071.5C1153.48 1077.06 1149.76 1079.66 1145.96 1079.66C1142.16 1079.66 1138.76 1077.06 1138.76 1071.5ZM1165.63 1064.62V1060.58H1161.99V1092.9H1165.63V1078.46C1166.99 1080.7 1169.83 1082.86 1173.83 1082.86C1179.71 1082.86 1184.23 1078.26 1184.23 1071.46C1184.23 1064.62 1179.71 1060.22 1173.83 1060.22C1169.83 1060.22 1166.95 1062.3 1165.63 1064.62ZM1180.51 1071.46C1180.51 1076.62 1177.11 1079.66 1173.07 1079.66C1169.11 1079.66 1165.63 1076.66 1165.63 1071.5C1165.63 1066.42 1169.11 1063.38 1173.07 1063.38C1177.11 1063.38 1180.51 1066.3 1180.51 1071.46ZM1209.82 1071.5C1209.82 1064.58 1204.98 1060.22 1198.74 1060.22C1192.54 1060.22 1187.66 1064.58 1187.66 1071.5C1187.66 1078.46 1192.38 1082.86 1198.58 1082.86C1204.82 1082.86 1209.82 1078.46 1209.82 1071.5ZM1191.38 1071.5C1191.38 1065.98 1194.86 1063.38 1198.7 1063.38C1202.46 1063.38 1206.1 1065.98 1206.1 1071.5C1206.1 1077.06 1202.38 1079.66 1198.58 1079.66C1194.78 1079.66 1191.38 1077.06 1191.38 1071.5ZM1214.6 1082.5H1218.24V1052.9H1214.6V1082.5ZM1224.45 1082.5H1228.09V1060.58H1224.45V1082.5ZM1226.33 1057.02C1227.65 1057.02 1228.73 1055.94 1228.73 1054.54C1228.73 1053.14 1227.65 1052.06 1226.33 1052.06C1224.93 1052.06 1223.85 1053.14 1223.85 1054.54C1223.85 1055.94 1224.93 1057.02 1226.33 1057.02ZM1250.05 1076.54C1249.89 1068.7 1237.17 1071.54 1237.17 1066.34C1237.17 1064.58 1238.77 1063.3 1241.45 1063.3C1244.37 1063.3 1246.05 1064.9 1246.21 1067.1H1249.85C1249.61 1062.82 1246.41 1060.22 1241.57 1060.22C1236.69 1060.22 1233.53 1062.98 1233.53 1066.34C1233.53 1074.5 1246.49 1071.66 1246.49 1076.54C1246.49 1078.34 1244.89 1079.78 1242.01 1079.78C1238.93 1079.78 1237.05 1078.18 1236.85 1076.06H1233.09C1233.33 1080.06 1236.93 1082.86 1242.05 1082.86C1246.89 1082.86 1250.05 1080.14 1250.05 1076.54ZM1275.17 1063.3C1278.93 1063.3 1282.13 1065.66 1282.09 1069.94H1268.25C1268.65 1065.66 1271.61 1063.3 1275.17 1063.3ZM1285.41 1075.74H1281.49C1280.69 1078.1 1278.61 1079.78 1275.33 1079.78C1271.61 1079.78 1268.49 1077.34 1268.21 1072.9H1285.73C1285.81 1072.14 1285.85 1071.5 1285.85 1070.7C1285.85 1064.7 1281.69 1060.22 1275.33 1060.22C1268.93 1060.22 1264.49 1064.58 1264.49 1071.5C1264.49 1078.46 1269.09 1082.86 1275.33 1082.86C1280.77 1082.86 1284.29 1079.74 1285.41 1075.74ZM1291.46 1076.5C1291.46 1080.9 1293.66 1082.5 1297.54 1082.5H1300.82V1079.42H1298.14C1295.9 1079.42 1295.1 1078.66 1295.1 1076.5V1063.58H1300.82V1060.58H1295.1V1055.06H1291.46V1060.58H1288.62V1063.58H1291.46V1076.5ZM1305.23 1082.5H1308.87V1070.38C1308.87 1065.66 1311.43 1063.34 1315.15 1063.34C1318.83 1063.34 1321.27 1065.62 1321.27 1070.1V1082.5H1324.87V1069.58C1324.87 1063.3 1320.99 1060.18 1316.11 1060.18C1313.03 1060.18 1310.31 1061.42 1308.87 1063.74V1052.9H1305.23V1082.5ZM1351.61 1071.5C1351.61 1064.58 1346.77 1060.22 1340.53 1060.22C1334.33 1060.22 1329.45 1064.58 1329.45 1071.5C1329.45 1078.46 1334.17 1082.86 1340.37 1082.86C1346.61 1082.86 1351.61 1078.46 1351.61 1071.5ZM1333.17 1071.5C1333.17 1065.98 1336.65 1063.38 1340.49 1063.38C1344.25 1063.38 1347.89 1065.98 1347.89 1071.5C1347.89 1077.06 1344.17 1079.66 1340.37 1079.66C1336.57 1079.66 1333.17 1077.06 1333.17 1071.5ZM1372.16 1076.54C1372 1068.7 1359.28 1071.54 1359.28 1066.34C1359.28 1064.58 1360.88 1063.3 1363.56 1063.3C1366.48 1063.3 1368.16 1064.9 1368.32 1067.1H1371.96C1371.72 1062.82 1368.52 1060.22 1363.68 1060.22C1358.8 1060.22 1355.64 1062.98 1355.64 1066.34C1355.64 1074.5 1368.6 1071.66 1368.6 1076.54C1368.6 1078.34 1367 1079.78 1364.12 1079.78C1361.04 1079.78 1359.16 1078.18 1358.96 1076.06H1355.2C1355.44 1080.06 1359.04 1082.86 1364.16 1082.86C1369 1082.86 1372.16 1080.14 1372.16 1076.54ZM1380.86 1080.26C1380.86 1078.86 1379.78 1077.78 1378.46 1077.78C1377.06 1077.78 1375.98 1078.86 1375.98 1080.26C1375.98 1081.66 1377.06 1082.74 1378.46 1082.74C1379.78 1082.74 1380.86 1081.66 1380.86 1080.26Z" fill="#F5F5F5"/>
<rect x="1708" y="13" width="626" height="144" rx="72" fill="white"/>
<path d="M1828.76 64.62V106.5H1850.96V99.84H1837.16V64.62H1828.76ZM1856.3 106.5H1864.7V64.62H1856.3V106.5ZM1890.22 97.92L1878.7 64.62H1869.7L1885.06 106.5H1895.26L1910.62 64.62H1901.68L1890.22 97.92ZM1939.96 64.56H1915.66V106.5H1939.96V99.66H1924.06V88.56H1938.16V81.9H1924.06V71.4H1939.96V64.56ZM1970.29 83.64V71.46H1976.95C1981.69 71.46 1983.79 73.74 1983.79 77.58C1983.79 81.3 1981.69 83.64 1976.95 83.64H1970.29ZM1992.43 77.58C1992.43 70.32 1987.39 64.62 1977.31 64.62H1961.89V106.5H1970.29V90.42H1977.31C1988.11 90.42 1992.43 83.94 1992.43 77.58ZM2020.59 77.64C2020.59 81.42 2018.49 83.88 2013.81 83.88H2006.79V71.58H2013.81C2018.49 71.58 2020.59 73.92 2020.59 77.64ZM1998.39 64.62V106.5H2006.79V90.18H2010.75L2019.99 106.5H2029.71L2019.69 89.52C2026.41 87.72 2029.23 82.56 2029.23 77.46C2029.23 70.44 2024.19 64.62 2014.11 64.62H1998.39ZM2061.13 64.56H2036.83V106.5H2061.13V99.66H2045.23V88.56H2059.33V81.9H2045.23V71.4H2061.13V64.56ZM2085.98 97.92L2074.46 64.62H2065.46L2080.82 106.5H2091.02L2106.38 64.62H2097.44L2085.98 97.92ZM2111.42 106.5H2119.82V64.62H2111.42V106.5ZM2152.42 64.56H2128.12V106.5H2152.42V99.66H2136.52V88.56H2150.62V81.9H2136.52V71.4H2152.42V64.56ZM2168.51 106.56L2178.35 106.5L2186.57 76.68L2194.43 106.5H2204.33L2216.03 64.62H2206.97L2199.53 96.96L2191.49 64.62H2182.13L2173.61 97.14L2166.23 64.62H2157.23L2168.51 106.56Z" fill="black"/>
</g>
<defs>
<clipPath id="clip0_476_18151">
<rect width="2334" height="1378" rx="60" fill="white"/>
</clipPath>
</defs>
</svg>
